<svg width="146" height="45" viewBox="0 0 146 45" fill="none" xmlns="http://www.w3.org/2000/svg">
<path d="M21.2234 8.95729L22.294 8.7289C22.5652 8.7289 22.7936 8.786 22.9507 8.9002C23.1077 9.01439 23.1933 9.12859 23.1933 9.22851C23.1933 9.32843 23.1648 9.48545 23.122 9.67102C23.0791 9.85659 22.6794 11.7694 21.9372 15.3808C21.1949 18.9923 20.6525 21.6902 20.3099 23.4602C21.9657 21.2048 23.9071 18.4356 26.1196 15.1382C28.3322 11.8407 29.6312 9.65674 30.0023 8.57188C30.1165 8.22929 30.2735 7.97235 30.4591 7.78678C30.6446 7.60121 30.8159 7.48702 30.9587 7.45847C31.1014 7.42992 31.3298 7.40137 31.6296 7.40137C31.9294 7.40137 32.2862 7.47274 32.7002 7.60121C33.1141 7.72968 33.3283 7.9438 33.3283 8.25784C33.3283 8.82882 32.4718 10.4989 30.7731 13.2397C29.0744 15.9804 27.1188 18.8924 24.9206 21.9757C22.7223 25.059 20.8951 27.4999 19.4249 29.2985C19.1679 29.6125 18.8396 29.7838 18.4685 29.7838C18.0973 29.7838 17.6976 29.7125 17.2837 29.584C16.8697 29.4555 16.6556 29.2271 16.6556 28.8845C16.6556 27.814 17.5977 22.6466 19.4819 13.4109C17.8689 15.495 15.9133 18.407 13.6151 22.1327C11.217 25.9868 9.86092 28.3849 9.54688 29.2985C9.37558 29.8552 9.17574 30.1835 8.94735 30.2692C8.79033 30.3405 8.61903 30.3691 8.44773 30.3691L7.2915 30.4976C7.06311 30.4976 6.86326 30.4405 6.66342 30.312C6.47785 30.1835 6.37793 30.0551 6.37793 29.9123C6.37793 29.5269 6.92037 28.3564 7.99096 26.415C9.06155 24.4737 10.332 22.3611 11.7737 20.0772C13.2154 17.7932 14.7143 15.5807 16.2845 13.4252C17.8547 11.2698 19.068 9.81376 19.9245 9.08576C20.0958 8.92874 20.2956 8.85737 20.524 8.85737L21.2234 8.95729Z" fill="#292F36"/>
<path d="M38.3815 18.6354C39.1238 18.6354 39.4949 18.8924 39.4949 19.392C39.4949 19.6632 39.4378 19.8631 39.3093 19.9915C39.1809 20.12 38.9097 20.534 38.4957 21.262C38.0817 21.9757 37.6249 22.8893 37.1253 24.0169C36.6257 25.1304 36.2974 26.0868 36.1547 26.8719C36.1261 26.9718 36.1119 27.1002 36.1119 27.2858C36.1119 27.8283 36.2546 28.0852 36.5544 28.0852C36.8541 28.0852 37.1967 27.9424 37.5964 27.6712C37.9961 27.3857 38.3529 27.1002 38.667 26.7719C38.981 26.4579 39.2808 26.1296 39.5806 25.8013C39.8803 25.473 40.0516 25.2731 40.1087 25.2303C40.1658 25.1875 40.2515 25.1589 40.3657 25.1589C40.5512 25.1589 40.6654 25.3017 40.7083 25.5872C40.7511 25.8726 40.7653 26.1581 40.7653 26.4722C40.7653 26.7862 40.7368 26.9861 40.6797 27.1002C40.3942 27.657 39.7804 28.3279 38.8097 29.113C37.8533 29.8981 36.9683 30.2835 36.1832 30.2835C35.3981 30.2835 34.8129 30.0408 34.456 29.5697C34.0991 29.0987 33.8993 28.5563 33.8993 27.9853C33.8993 27.4 33.9992 26.9004 34.1991 26.4579C33.3854 27.5142 32.4576 28.3992 31.4155 29.1415C30.3592 29.8695 29.517 30.2406 28.8461 30.2406C28.1752 30.2406 27.6471 30.0408 27.2188 29.6411C26.6764 29.1415 26.4194 28.4563 26.4194 27.5713C26.4194 26.6863 26.6193 25.8013 27.019 24.902C27.4186 24.017 27.9325 23.189 28.5749 22.461C29.2173 21.7187 29.931 21.0478 30.7018 20.4483C32.3148 19.1779 33.8136 18.5498 35.184 18.5498C35.7122 18.5498 36.1404 18.6355 36.4687 18.8067C36.797 18.978 37.0112 19.2064 37.0968 19.4634C37.3252 19.1065 37.525 18.8924 37.6963 18.7925C37.8248 18.6783 38.0675 18.6354 38.3815 18.6354ZM36.4402 20.2628C34.77 20.2628 33.0428 21.1906 31.2585 23.0463C30.6304 23.7172 30.0452 24.5023 29.5027 25.4301C28.9603 26.358 28.7034 26.9861 28.7034 27.3286C28.7034 27.6712 28.8033 27.8425 29.0031 27.8425C29.2744 27.8425 30.0309 27.3001 31.2871 26.2295C32.5432 25.1589 33.3711 24.3595 33.7708 23.8457C34.2276 23.2747 35.1126 22.0756 36.4402 20.2628Z" fill="#292F36"/>
<path d="M49.487 10.8987L50.0865 11.0414C50.1722 11.0414 50.2578 11.0843 50.3149 11.1699C50.3863 11.2555 50.4149 11.3412 50.4149 11.4126C50.4149 11.4839 50.315 11.6981 50.1008 12.0406C49.8867 12.3832 49.6583 12.7686 49.3728 13.1969C49.0873 13.6251 48.9446 13.8678 48.9303 13.9106C49.6869 13.8535 50.2293 13.825 50.5433 13.825C50.8574 13.825 51.0715 13.8535 51.2 13.8963C51.3142 13.9392 51.4569 14.0676 51.5996 14.2675C51.7567 14.4673 51.8851 14.6243 52.0136 14.7243C52.1421 14.8242 52.1992 14.9812 52.1992 15.181C52.1992 15.3809 52.0707 15.5665 51.828 15.6949C51.5854 15.8377 51.3142 15.9233 51.0287 15.9519C48.759 16.1803 47.5171 16.2945 47.2888 16.3087C46.5037 17.5221 45.3902 19.4063 43.977 21.9614C42.5639 24.5166 41.8073 26.1296 41.7217 26.772C41.6788 27.0717 41.6646 27.3001 41.6646 27.4857C41.6646 27.8711 41.8644 28.0567 42.2641 28.0567C42.6638 28.0567 43.1063 27.8997 43.5916 27.5999C44.077 27.2859 44.5338 26.9575 44.9334 26.6007C46.0326 25.63 46.6179 25.1304 46.6892 25.1304C46.9462 25.1304 47.0746 25.5729 47.0746 26.4437C47.0746 26.9147 46.8605 27.3429 46.418 27.7284C45.4331 28.5706 44.6051 29.2129 43.9342 29.6411C43.2633 30.0694 42.5924 30.2835 41.9072 30.2835C41.7645 30.2835 41.6218 30.2692 41.4933 30.2407C40.7082 30.0979 40.1372 29.8124 39.7803 29.3842C39.4092 28.956 39.2379 28.385 39.2379 27.6713C39.2379 26.9575 39.452 26.0725 39.8803 25.0447C40.3085 24.017 40.8367 22.9178 41.479 21.7616C42.5353 19.8631 43.5916 18.093 44.6337 16.4372L44.077 16.5086C42.9493 16.637 42.2927 16.6941 42.1071 16.6941H41.9786C41.6931 16.6941 41.4219 16.637 41.165 16.5228C40.908 16.4087 40.7653 16.2659 40.7653 16.1089C40.7653 15.9376 40.8367 15.7806 40.9794 15.6236C41.1222 15.4665 41.2078 15.3381 41.2363 15.2524C41.3077 15.0383 41.5646 14.7956 42.0072 14.5387C42.4497 14.2817 42.778 14.139 43.0064 14.1247C43.2348 14.1105 43.4489 14.0962 43.663 14.0819C43.8771 14.0676 44.1055 14.0676 44.3625 14.0534C44.6194 14.0391 44.8193 14.0391 44.962 14.0248L46.2753 13.9677C47.0889 12.7401 47.6599 11.9407 47.9597 11.5981C48.2737 11.2413 48.445 11.0557 48.4878 11.0272C48.5306 10.9986 48.6305 10.9701 48.7876 10.9701L49.487 10.8987Z" fill="#292F36"/>
<path d="M58.2659 25.1591C58.4515 25.1591 58.5657 25.3019 58.6085 25.5873C58.6513 25.8728 58.6656 26.1583 58.6656 26.4724C58.6656 26.7864 58.637 26.9862 58.5799 27.1004C58.2944 27.6429 57.6807 28.3138 56.7243 29.0989C55.7679 29.884 54.8543 30.2837 53.9978 30.2837C53.4697 30.2837 52.9843 30.1266 52.5275 29.8126C52.085 29.4986 51.8566 28.9419 51.8566 28.1568C51.8566 27.3717 52.0708 26.5866 52.4847 25.83C50.0581 28.8705 48.1738 30.3836 46.7892 30.3836C46.2467 30.3836 45.8042 30.1838 45.4617 29.7983C45.1191 29.4129 44.962 29.0132 44.962 28.585C44.962 28.171 45.0191 27.7428 45.1333 27.3003C45.2475 26.8578 45.376 26.4581 45.5045 26.1012C45.6329 25.7444 45.8328 25.3161 46.0897 24.8023C46.3467 24.2884 46.5465 23.9172 46.6607 23.6746C46.7749 23.4319 46.989 23.0893 47.2745 22.6182C47.56 22.1472 47.9169 21.5048 48.3736 20.7055C48.8304 19.9061 49.2016 19.3066 49.5013 18.9211C49.8011 18.5357 50.0866 18.3359 50.3721 18.3359C50.6576 18.3359 50.9002 18.4501 51.1144 18.6785C51.3285 18.9069 51.4427 19.1067 51.4427 19.2495C51.4427 19.3922 51.1144 20.0488 50.4577 21.2193C48.5307 24.7166 47.56 26.7436 47.56 27.3288C47.56 27.4716 47.6171 27.543 47.717 27.543C48.1881 27.543 49.3586 26.5295 51.2143 24.5025C53.07 22.4755 54.1548 21.1765 54.4546 20.6055C54.7544 20.0346 55.0256 19.5492 55.3111 19.1638C55.5823 18.7784 55.7964 18.5357 55.9392 18.4501C56.3531 18.1789 56.8955 18.0361 57.5665 18.0076C57.6806 18.0076 57.752 18.0076 57.8091 18.0218C57.8662 18.0361 57.9376 18.1218 58.009 18.2645C58.0803 18.4073 58.1232 18.5357 58.1232 18.6356C58.0375 18.9069 57.6521 19.6349 56.9526 20.8197C56.2675 22.0044 55.8821 22.6753 55.8107 22.8181C54.6545 25.2019 54.0835 26.7579 54.0835 27.4716C54.0835 27.8855 54.2405 28.0854 54.5545 28.0854C55.1255 28.014 55.8107 27.5572 56.6101 26.7293C56.9098 26.4295 57.1953 26.1155 57.4808 25.8015C57.7663 25.4874 57.9519 25.3019 58.009 25.259C58.0803 25.1877 58.166 25.1591 58.2659 25.1591Z" fill="#292F36"/>
<path d="M62.5054 21.7759C64.8036 19.1637 66.7735 17.8504 68.3865 17.8504C68.7862 17.8504 69.1145 17.9646 69.3715 18.2073C69.6284 18.45 69.7569 18.7497 69.7569 19.1351C69.7569 19.5206 69.4857 20.1486 68.9432 21.0479C68.4008 21.933 67.9012 22.6895 67.4444 23.3033C67.2017 23.6174 66.9305 23.7744 66.6165 23.7744C66.3167 23.7744 66.0741 23.6602 65.9028 23.4318C65.7315 23.2034 65.6458 22.9464 65.6458 22.6467C65.6458 21.9758 66.0027 21.205 66.7307 20.3628L66.7021 20.3342C66.3738 20.3628 65.5887 21.0051 64.304 22.2327C63.0336 23.4746 61.9487 24.588 61.0494 25.5587C60.1644 26.5436 59.1937 27.7284 58.1374 29.1416C57.8376 29.5556 57.5807 29.7697 57.3666 29.7697C57.1525 29.7697 56.8813 29.6983 56.5387 29.5698C56.1961 29.4414 55.982 29.3414 55.9106 29.2843C55.8392 29.2272 55.7964 29.1273 55.7964 28.9846C55.7964 28.8561 55.8392 28.6848 55.9106 28.5135C55.982 28.3279 56.139 28.071 56.3388 27.7427C56.5387 27.4144 56.867 26.8719 57.2952 26.1297C57.7235 25.3874 58.3801 24.2597 59.2794 22.7609C60.1787 21.2621 60.7068 20.3485 60.8924 20.0344C61.2635 19.3921 61.5633 18.921 61.806 18.6355C62.2485 18.0788 62.9908 17.8076 64.0328 17.8076C64.2612 17.8076 64.3897 17.9504 64.3897 18.2501C64.3897 18.7069 63.9614 19.5777 63.1192 20.8338L62.5054 21.7759Z" fill="#292F36"/>
<path d="M78.2502 18.8067C78.2502 19.449 77.9932 20.02 77.4651 20.5053C76.9369 20.9907 76.3517 21.2333 75.6808 21.2333C75.4667 21.2333 75.3239 21.1762 75.2525 21.0763C75.1812 20.9764 75.1526 20.8336 75.1526 20.6766C75.1526 20.5196 75.1669 20.3483 75.2097 20.1913C74.8528 20.3055 74.4674 20.491 74.0392 20.7337C73.611 20.9764 73.0828 21.3332 72.4547 21.8186C71.8266 22.3039 71.5126 22.6465 71.5126 22.8892C71.5126 22.9605 71.6268 23.0034 71.8552 23.0034C72.0836 23.0034 72.4405 22.9177 72.9115 22.7607C73.3826 22.6037 73.7252 22.518 73.9107 22.518C74.0963 22.518 74.2248 22.5323 74.2819 22.5466C74.4103 22.618 74.5388 22.7607 74.6958 22.9891C74.8386 23.2175 74.9099 23.4031 74.9099 23.5315C74.9099 23.66 74.7815 23.8313 74.5245 24.0454C74.2676 24.2595 73.9821 24.4165 73.6681 24.5307C73.3397 24.6449 73.1256 24.7306 73.0257 24.7877C70.9702 25.9439 69.9424 26.729 69.9424 27.1573C69.9424 27.9138 70.5848 28.2992 71.8837 28.2992C72.7117 28.2992 73.5539 28.0423 74.3818 27.5141C75.0955 27.0716 75.7379 26.6148 76.3089 26.1438C76.8798 25.687 77.2367 25.4015 77.3937 25.2873C77.5507 25.1731 77.6649 25.1303 77.7363 25.1303C77.9933 25.1303 78.1217 25.4158 78.1217 25.9867C78.1217 26.5577 78.0932 26.9289 78.0218 27.1002C77.9504 27.2857 77.7648 27.4998 77.4365 27.7711C75.3525 29.4697 73.3683 30.3262 71.5126 30.3262C70.5134 30.3262 69.7283 30.1835 69.1287 29.9122C68.0296 29.4126 67.4872 28.6561 67.4872 27.6283C67.4872 26.2865 68.415 25.2587 70.285 24.5736C69.9139 24.4023 69.6712 24.2024 69.5713 23.9312C69.4571 23.6743 69.4143 23.2603 69.4143 22.6893C69.4143 22.1183 69.6855 21.5188 70.2136 20.8765C70.7418 20.2341 71.3984 19.7059 72.1692 19.3063C73.8822 18.3784 75.4238 17.9216 76.7656 17.9216C77.0939 17.9216 77.408 17.993 77.7506 18.15C78.0932 18.307 78.2502 18.5212 78.2502 18.8067Z" fill="#292F36"/>
<path d="M111.567 8.87167H111.753C111.81 8.87167 111.853 8.87167 111.867 8.88595C111.881 8.90022 111.895 8.90022 111.924 8.9145C111.952 8.9145 111.967 8.92877 111.995 8.95732C112.038 9.00014 112.109 9.04296 112.195 9.08579C112.309 9.17144 112.366 9.27136 112.366 9.38556C112.366 9.49975 112.252 9.74242 112.024 10.1136C111.795 10.4847 111.21 11.384 110.254 12.84C108.07 16.1802 106.114 19.2921 104.387 22.147C101.404 27.1145 99.8905 29.6126 99.8619 29.6411C99.8334 29.6697 99.8191 29.6982 99.8048 29.7268C99.7905 29.7839 99.762 29.8124 99.6906 29.8124L99.4908 29.7696L99.0911 29.8695L98.8627 29.8267L98.62 29.8695H98.5344L97.7207 29.9837C97.2354 29.9837 96.9927 29.8124 96.9927 29.4841C96.9927 29.3414 97.0356 29.1701 97.1212 28.9702C97.421 28.2565 98.9484 25.6728 101.689 21.1906C99.8905 21.2334 98.1062 21.262 96.3504 21.262L93.21 21.2477C92.6961 22.0756 91.9824 23.2461 91.0831 24.7735C89.1417 28.0995 88.114 29.7696 87.9855 29.7981C87.857 29.8267 87.7571 29.8552 87.6715 29.8552C87.5858 29.8552 87.5145 29.8124 87.4574 29.7125C87.386 29.6268 87.3431 29.5697 87.3146 29.5697C87.2861 29.5697 87.2432 29.584 87.1576 29.6268C87.0862 29.6697 86.972 29.6839 86.815 29.6839L86.4724 29.6697L86.3439 29.584C86.3297 29.584 86.3154 29.5983 86.3011 29.6268C86.2868 29.6554 86.244 29.6697 86.1869 29.6697C85.773 29.6697 85.5588 29.4984 85.5588 29.1415C85.5588 28.9131 85.6445 28.5991 85.8015 28.2137C85.9728 27.8283 86.1869 27.4143 86.4581 26.9718C86.7294 26.5293 87.4145 25.4587 88.5422 23.7886C89.6556 22.1184 90.2123 21.2762 90.2123 21.262C90.0268 21.2477 89.8126 21.2477 89.57 21.2334C89.0704 21.2334 88.7278 21.2191 88.5137 21.1763C87.9569 21.0764 87.5716 20.6196 87.3717 19.806C87.2575 19.4063 87.2147 19.1493 87.229 19.0209C87.229 18.7639 87.3432 18.6212 87.5716 18.6212L87.9569 18.7211C88.1568 18.7354 88.6136 18.7496 89.3559 18.7925C90.0981 18.8353 90.6263 18.8496 90.9546 18.8496L91.7825 18.821C93.053 16.8369 94.5661 14.5815 96.3361 12.0692C95.0514 13.1255 93.624 13.6536 92.0538 13.6536C91.3115 13.6536 90.6691 13.4823 90.141 13.1255C89.5985 12.7686 89.3416 12.3118 89.3416 11.7694C89.3416 11.227 89.5414 10.7987 89.9554 10.4704C90.3694 10.1564 90.7548 9.99936 91.1259 9.99936C91.497 9.99936 91.6826 10.0565 91.6826 10.1707C91.6826 10.2135 91.6255 10.2563 91.5256 10.2991C91.4257 10.3562 91.3686 10.399 91.3686 10.4419C91.3686 10.5989 91.5399 10.7416 91.8824 10.8558C92.225 10.97 92.6104 11.0414 93.0387 11.0414C93.4669 11.0414 93.9808 10.9129 94.6089 10.6703C95.237 10.4276 95.8793 10.0993 96.5502 9.71387C97.4923 9.17144 98.2346 8.71465 98.7771 8.35779C99.0911 8.20077 99.3766 8.12939 99.6621 8.12939C99.9476 8.12939 100.133 8.15794 100.262 8.22932C100.39 8.28641 100.476 8.35779 100.533 8.41489C100.59 8.47198 100.661 8.55763 100.718 8.65755C100.79 8.75748 100.847 8.84312 100.918 8.88595C100.975 8.94304 101.018 9.00014 101.018 9.07151C101.018 9.14289 100.975 9.24281 100.904 9.39983C100.833 9.54258 100.461 10.1421 99.7906 11.1841C99.1196 12.2262 98.2489 13.5537 97.1926 15.1667C96.1363 16.7798 95.3654 17.9646 94.8801 18.7354C97.4923 18.7354 100.304 18.6926 103.331 18.5926C107.013 12.7829 108.955 9.74242 109.155 9.45693C109.354 9.17144 109.54 8.98587 109.711 8.90022C109.883 8.81457 110.082 8.77175 110.325 8.77175L111.567 8.87167Z" fill="#292F36"/>
<path d="M116.335 18.6068C116.634 18.6068 116.934 18.7353 117.234 19.0065C117.548 19.2777 117.691 19.6774 117.691 20.2198C117.691 20.7623 117.505 21.4617 117.12 22.3325C116.734 23.1889 116.22 24.074 115.55 24.9733C114.893 25.8583 114.151 26.7005 113.366 27.4856C112.566 28.2707 111.71 28.913 110.796 29.4127C109.868 29.9123 109.04 30.1692 108.284 30.1692C107.527 30.1692 106.928 29.9265 106.471 29.4555C106.014 28.9844 105.786 28.3278 105.786 27.4856C105.786 26.6434 106 25.7013 106.414 24.6878C106.828 23.66 107.356 22.7607 108.013 21.9756C108.669 21.1905 109.369 20.4911 110.14 19.863C111.724 18.5783 113.123 17.9502 114.322 17.9502C114.864 17.9502 115.264 18.0787 115.535 18.3499C115.635 18.4355 115.678 18.5212 115.678 18.5783V18.6639C115.835 18.6068 116.049 18.6068 116.335 18.6068ZM114.864 20.5482H114.764C114.422 20.5482 114.251 20.3055 114.251 19.8059C113.537 20.0343 112.795 20.4482 112.009 21.0335C111.224 21.6188 110.525 22.3182 109.911 23.1176C108.655 24.7163 108.027 26.0724 108.013 27.1715C108.013 27.714 108.212 27.9852 108.612 27.9852C109.012 27.9852 109.611 27.714 110.396 27.2001C111.182 26.6862 111.967 25.9297 112.752 24.9447C113.523 23.9741 114.108 23.1176 114.493 22.4039C114.879 21.6901 115.078 21.2048 115.078 20.9336C115.064 20.6766 114.993 20.5482 114.864 20.5482Z" fill="#292F36"/>
<path d="M117.377 29.8409L116.663 29.8124H116.406C116.306 29.7838 116.206 29.7267 116.092 29.6411C115.978 29.5554 115.892 29.484 115.835 29.4555C115.778 29.427 115.749 29.3413 115.749 29.2414C115.749 29.1415 115.792 28.9559 115.864 28.7132C117.762 24.5308 119.604 21.1763 121.388 18.6782C121.588 18.407 121.902 18.1929 122.33 18.0501C122.758 17.9074 123.186 17.836 123.6 17.836C123.843 17.836 123.972 18.0216 123.972 18.407C123.972 18.5212 123.929 18.664 123.857 18.8352C123.786 19.0208 123.586 19.3063 123.272 19.7203C122.958 20.1342 122.587 20.6053 122.159 21.1192C121.73 21.6331 121.488 21.9471 121.431 22.0327C122.772 20.6481 123.972 19.6203 125.056 18.9352C126.141 18.2643 126.912 17.9217 127.397 17.9217C127.883 17.9217 128.254 18.0644 128.511 18.3356C128.768 18.6069 128.896 18.9066 128.896 19.2207C128.896 19.5347 128.868 19.8059 128.825 20.0058C128.782 20.2199 128.696 20.434 128.582 20.6624C128.468 20.8908 128.368 21.0906 128.282 21.2476C128.197 21.4047 128.054 21.6188 127.868 21.8757C127.669 22.1327 127.54 22.3182 127.469 22.4182C127.397 22.5181 127.24 22.7036 127.012 22.9749C126.784 23.2461 126.655 23.4031 126.641 23.4316C126.912 23.1604 127.297 22.7607 127.783 22.2183C128.268 21.6759 128.682 21.2334 129.025 20.8765C129.367 20.5196 129.781 20.1057 130.295 19.6489C130.809 19.1921 131.28 18.821 131.708 18.5498C132.765 17.8931 133.835 17.5505 134.92 17.5505C135.291 17.5505 135.605 17.6647 135.862 17.9074C136.119 18.1501 136.248 18.4213 136.248 18.7496C136.248 19.0779 135.848 19.863 135.063 21.0906C134.278 22.3182 133.478 23.5601 132.693 24.802C131.908 26.0439 131.508 26.829 131.508 27.1573C131.508 27.5998 131.594 27.871 131.751 27.9567C131.922 28.0423 132.122 28.0709 132.351 28.0566C132.579 28.0423 132.922 27.8853 133.336 27.5998C133.764 27.3143 134.135 27.0288 134.463 26.7148C135.006 26.2295 135.491 25.7584 135.962 25.3016C136.062 25.216 136.162 25.1731 136.29 25.1731C136.476 25.1731 136.59 25.3159 136.633 25.6014C136.676 25.8869 136.69 26.1724 136.69 26.4864C136.69 26.8004 136.662 27.0003 136.604 27.1145C136.319 27.6569 135.691 28.3278 134.735 29.1272C133.764 29.9123 132.836 30.312 131.951 30.312C131.837 30.312 131.765 30.312 131.723 30.2977C130.723 30.1978 130.024 29.9266 129.639 29.4698C129.253 29.013 129.068 28.4706 129.068 27.8568C129.068 27.2429 129.282 26.4721 129.71 25.5871C130.138 24.7021 130.595 23.8884 131.109 23.1747C131.623 22.461 132.079 21.8043 132.508 21.2191C132.936 20.6338 133.15 20.3198 133.15 20.277C133.15 20.2341 133.107 20.2056 133.036 20.2056C132.736 20.2056 132.065 20.6909 131.009 21.6759C129.225 23.346 127.683 24.959 126.384 26.5007C126.041 26.9146 125.228 27.9424 123.957 29.6125C123.815 29.8124 123.572 29.9123 123.258 29.9123C122.944 29.9123 122.615 29.8552 122.273 29.7267C121.93 29.5982 121.759 29.4412 121.759 29.2557C121.759 29.1557 122.53 27.7854 124.086 25.1446C125.642 22.5038 126.412 21.0621 126.412 20.8337C126.412 20.591 126.27 20.4768 125.984 20.4768C125.699 20.4768 125.099 20.9051 124.2 21.7615C121.73 24.1168 119.818 26.4721 118.462 28.7989C118.376 28.9416 118.205 29.1557 117.948 29.4412C117.691 29.7267 117.462 29.8409 117.377 29.8409Z" fill="#292F36"/>
<path d="M145.683 18.8067C145.683 19.449 145.426 20.02 144.898 20.5053C144.37 20.9907 143.785 21.2333 143.114 21.2333C142.9 21.2333 142.757 21.1762 142.686 21.0763C142.614 20.9764 142.586 20.8336 142.586 20.6766C142.586 20.5196 142.6 20.3483 142.643 20.1913C142.286 20.3055 141.9 20.491 141.472 20.7337C141.044 20.9764 140.516 21.3332 139.888 21.8186C139.26 22.3039 138.946 22.6465 138.946 22.8892C138.946 22.9605 139.06 23.0034 139.288 23.0034C139.517 23.0034 139.873 22.9177 140.344 22.7607C140.816 22.6037 141.158 22.518 141.344 22.518C141.529 22.518 141.658 22.5323 141.715 22.5466C141.843 22.618 141.972 22.7607 142.129 22.9891C142.272 23.2175 142.343 23.4031 142.343 23.5315C142.343 23.66 142.214 23.8313 141.958 24.0454C141.701 24.2595 141.415 24.4165 141.101 24.5307C140.773 24.6449 140.559 24.7306 140.459 24.7877C138.403 25.9439 137.375 26.729 137.375 27.1573C137.375 27.9138 138.018 28.2992 139.317 28.2992C140.145 28.2992 140.987 28.0423 141.815 27.5141C142.528 27.0716 143.171 26.6148 143.742 26.1438C144.313 25.687 144.67 25.4015 144.827 25.2873C144.984 25.1731 145.098 25.1303 145.169 25.1303C145.426 25.1303 145.555 25.4158 145.555 25.9867C145.555 26.5577 145.526 26.9289 145.455 27.1002C145.383 27.2857 145.198 27.4998 144.87 27.7711C142.785 29.4697 140.801 30.3262 138.946 30.3262C137.946 30.3262 137.161 30.1835 136.562 29.9122C135.463 29.4126 134.92 28.6561 134.92 27.6283C134.92 26.2865 135.848 25.2587 137.718 24.5736C137.347 24.4023 137.104 24.2024 137.004 23.9312C136.89 23.6743 136.847 23.2603 136.847 22.6893C136.847 22.1183 137.118 21.5188 137.647 20.8765C138.175 20.2341 138.831 19.7059 139.602 19.3063C141.315 18.3784 142.857 17.9216 144.199 17.9216C144.527 17.9216 144.841 17.993 145.184 18.15C145.526 18.307 145.683 18.5212 145.683 18.8067Z" fill="#292F36"/>
<path d="M0.982178 33.795C4.73638 35.3652 8.56195 36.5785 12.4589 37.5064C16.3273 38.477 20.2671 39.1622 24.2069 39.5904C26.1767 39.8617 28.1609 39.8902 30.1165 40.0758C32.1007 40.0901 34.0705 40.2471 36.0404 40.1329L38.9953 40.0615C39.9802 40.0472 40.9651 39.9188 41.9501 39.8617C42.935 39.776 43.92 39.7332 44.8906 39.6047L47.8169 39.1908C51.7424 38.7625 55.5537 37.849 59.3507 36.7498C63.1906 35.6935 66.8163 34.2946 70.6562 32.8386C74.5817 31.3969 78.8355 30.4547 83.1464 30.9115C85.2733 31.1828 87.4145 31.8679 89.156 33.1241C90.9118 34.366 92.1679 36.136 92.9673 37.9917C91.7682 36.3359 90.2694 34.9798 88.5422 34.1376C86.8149 33.2954 84.9164 32.9528 83.0322 33.0099C79.2209 33.067 75.4667 34.3374 71.9409 35.9362C68.358 37.7062 64.4753 39.305 60.5641 40.6325C56.6243 41.9029 52.5561 42.9164 48.4307 43.4303C40.2229 44.5152 31.8152 44.5294 23.7072 42.8879C19.639 42.1456 15.6707 40.9894 11.8308 39.5191C8.01951 37.9917 4.29387 36.2074 0.982178 33.795Z" fill="#292F36"/>
<path d="M137.49 10.028C134.306 8.67192 131.066 7.6156 127.783 6.78768C124.514 5.91693 121.202 5.30313 117.876 4.87489C116.22 4.61795 114.536 4.56085 112.88 4.36101C111.21 4.31819 109.554 4.14689 107.884 4.21826C107.056 4.23254 106.214 4.23254 105.386 4.21826C104.558 4.21826 103.716 4.30391 102.888 4.33246C102.06 4.38956 101.218 4.40383 100.39 4.48948L97.9062 4.78924C94.5803 5.06046 91.3542 5.74564 88.1282 6.58784C84.8593 7.37294 81.7617 8.48635 78.4643 9.59976C75.0812 10.7275 71.4127 11.4126 67.7299 10.8987C65.917 10.599 64.0899 9.95662 62.6481 8.81466C61.1778 7.68697 60.1786 6.14532 59.5648 4.5323C60.5783 5.94548 61.8345 7.10172 63.2762 7.81545C64.7179 8.52917 66.3024 8.82894 67.8869 8.81466C71.0844 8.81466 74.2533 7.7869 77.251 6.50219C80.3057 5.04619 83.6602 3.76148 87.0005 2.70516C90.3693 1.69167 93.8808 0.920846 97.3923 0.549708C104.401 -0.192567 111.567 -0.0212732 118.433 1.60602C121.873 2.33403 125.228 3.44744 128.439 4.81779C131.665 6.2167 134.777 7.84399 137.49 10.028Z" fill="#292F36"/>
</svg>
