<svg width="164" height="44" viewBox="0 0 164 44" fill="none" xmlns="http://www.w3.org/2000/svg">
<path d="M35.3999 43.548H8.58166C4.17451 43.548 0.602783 39.9763 0.602783 35.5691V8.75086C0.602783 4.34371 4.17451 0.771973 8.58166 0.771973H35.3999C39.8071 0.771973 43.3788 4.34371 43.3788 8.75086V35.5691C43.3788 39.9763 39.8071 43.548 35.3999 43.548Z" fill="#292F36"/>
<path d="M29.6972 22.5535C30.46 23.51 30.8475 24.6239 30.8475 25.8831C30.8475 27.7356 30.23 29.1885 28.995 30.2176C27.76 31.2467 25.9923 31.7795 23.6919 31.7795H13.6426V10.1675H23.4498C25.6533 10.1675 27.3484 10.6518 28.547 11.6083C29.7457 12.5648 30.3511 13.9329 30.3511 15.7006C30.3511 17.0083 30 18.0858 29.3098 18.9576C28.6197 19.8293 27.7116 20.3863 26.5856 20.6526C27.9054 20.9674 28.9345 21.597 29.6972 22.5535ZM18.861 19.006H22.2874C24.1036 19.006 25.0116 18.2311 25.0116 16.6814C25.0116 15.1316 24.0794 14.3567 22.2269 14.3567H18.861V19.006ZM25.4959 25.1567C25.4959 24.3818 25.2417 23.7764 24.7332 23.3405C24.2247 22.9046 23.4982 22.6867 22.5659 22.6867H18.8731V27.5418H22.6022C24.5273 27.5297 25.4959 26.7427 25.4959 25.1567Z" fill="white"/>
<path d="M68.163 31.7795L63.4894 23.619H62.3029V31.7795H57.0724V10.1675H65.9957C67.7029 10.1675 69.1558 10.4581 70.3302 11.0513C71.5168 11.6446 72.4006 12.4558 72.9939 13.485C73.5872 14.5141 73.8778 15.6885 73.8778 17.0204C73.8778 18.5943 73.4419 19.9262 72.5822 21.028C71.7105 22.1298 70.4634 22.8804 68.8047 23.2921L73.9383 31.7916H68.163V31.7795ZM62.3029 20.0473H65.5356C66.5769 20.0473 67.3397 19.8172 67.824 19.3571C68.3083 18.897 68.5625 18.219 68.5625 17.3231C68.5625 16.4634 68.3083 15.7975 67.8119 15.3011C67.3154 14.8168 66.5527 14.5625 65.5356 14.5625H62.3029V20.0473Z" fill="#292F36"/>
<path d="M97.5359 27.8445H89.436L88.092 31.7915H82.5952L90.5135 10.3369H96.531L104.449 31.7915H98.892L97.5359 27.8445ZM96.192 23.8611L93.5041 15.9185L90.7799 23.8611H96.192Z" fill="#292F36"/>
<path d="M133.302 31.7795H128.071L119.329 18.5096V31.7795H114.099V10.1675H119.329L128.071 23.5584V10.1675H133.302V31.7795Z" fill="#292F36"/>
<path d="M162.626 26.5733C161.718 28.2078 160.41 29.4912 158.715 30.4114C157.008 31.3316 155.01 31.7917 152.71 31.7917H144.55V10.1797H152.71C155.035 10.1797 157.045 10.6277 158.728 11.5236C160.423 12.4196 161.718 13.6788 162.626 15.3133C163.534 16.9478 163.982 18.8124 163.982 20.9433C163.982 23.05 163.522 24.9267 162.626 26.5733ZM156.996 25.4836C158.122 24.4061 158.691 22.8805 158.691 20.9312C158.691 18.9698 158.122 17.4563 156.996 16.3788C155.87 15.3012 154.284 14.7563 152.238 14.7563H149.768V27.1061H152.238C154.284 27.1061 155.87 26.5733 156.996 25.4836Z" fill="#292F36"/>
</svg>
