<svg width="118" height="48" viewBox="0 0 118 48" fill="none" xmlns="http://www.w3.org/2000/svg">
<path d="M0.683228 29.7841V0.578369H17.8841V29.7698H0.683228V29.7841ZM15.8 22.9894L16.2425 19.7633L14.6437 19.6063L14.1584 22.0901C13.1592 22.5897 11.9316 22.8324 10.4613 22.8324C8.46286 22.8324 6.87837 22.2043 5.72214 20.9339C4.55163 19.6634 3.98064 17.9933 3.98064 15.9092C3.98064 13.8822 4.55163 12.2121 5.67932 10.8989C6.807 9.5856 8.29159 8.92897 10.133 8.92897C11.0751 8.92897 11.8745 9.04317 12.5168 9.25729C13.1592 9.4714 13.7444 9.7569 14.3011 10.128L14.7722 12.5833L16.3995 12.4262L15.9285 9.20019C15.2433 8.61493 14.4296 8.14387 13.4875 7.77274C12.5454 7.41587 11.3749 7.2303 9.99025 7.2303C8.34868 7.2303 6.9355 7.62999 5.75071 8.44364C4.56593 9.25729 3.63808 10.3279 2.98145 11.6554C2.32482 12.9972 1.9965 14.4389 1.9965 15.9806C1.9965 18.4215 2.75305 20.4628 4.26615 22.0901C5.77925 23.7174 7.74913 24.531 10.1901 24.531C12.5882 24.531 14.4582 24.0172 15.8 22.9894Z" fill="#292F36"/>
<path d="M23.7224 29.7841V0.578369H31.1166V29.7698H23.7224V29.7841ZM24.5075 24.2741H30.3458V22.8038H28.3331V6.5023H24.479V7.97258H26.5202V22.8038H24.5075V24.2741Z" fill="#292F36"/>
<path d="M36.9548 29.7841V0.578369H49.9447V29.7698H36.9548V29.7841ZM39.3101 13.6538L38.8962 16.3089L40.395 16.4945L40.8375 14.5103C41.4799 14.1963 42.2079 14.0393 43.0643 14.0393C44.0921 14.0393 44.7916 14.2962 45.1484 14.8101C45.5053 15.324 45.6766 15.9949 45.6766 16.8228V17.8506C45.3626 17.822 45.0342 17.7935 44.6774 17.7792C44.3205 17.7649 43.9779 17.7506 43.6353 17.7506C42.3506 17.7506 41.123 17.979 39.981 18.4358C38.8391 18.8926 38.2681 19.849 38.2681 21.2907C38.2681 22.5183 38.6535 23.3605 39.4386 23.8173C40.2237 24.2884 40.9946 24.5168 41.7511 24.5168C42.6789 24.5168 43.4783 24.2741 44.1349 23.7888C44.7916 23.3034 45.3055 22.761 45.6766 22.1329V22.19C45.7051 23.7459 46.4046 24.5168 47.775 24.5168C48.3031 24.5168 48.8027 24.3883 49.2738 24.1314L49.2452 22.9466C49.0168 23.0465 48.7599 23.1036 48.4744 23.1036C47.8178 23.1036 47.4894 22.6896 47.4894 21.8617V16.3946C47.4894 13.8251 46.1191 12.5404 43.3784 12.5404C42.6218 12.5404 41.9081 12.6261 41.2372 12.7974C40.552 12.9829 39.9097 13.2684 39.3101 13.6538ZM45.6623 19.9632C45.5909 20.9053 45.2055 21.6619 44.5061 22.2043C43.8066 22.761 43.0643 23.0322 42.265 23.0322C41.7654 23.0322 41.28 22.8895 40.8233 22.6183C40.3522 22.347 40.1238 21.8332 40.1238 21.0909C40.1238 20.1916 40.4807 19.6206 41.1658 19.3494C41.8653 19.0782 42.6361 18.9497 43.5068 18.9497C43.8923 18.9497 44.2634 18.964 44.6203 19.0068C44.9771 19.0353 45.334 19.0639 45.648 19.0782V19.9632H45.6623Z" fill="#292F36"/>
<path d="M55.7972 29.7841V0.578369H67.6023V29.7698H55.7972V29.7841ZM66.3604 20.9481C66.3604 20.0346 66.1177 19.3637 65.6324 18.9211C65.147 18.4786 64.5618 18.1789 63.8481 18.0076C63.1343 17.8363 62.4349 17.6935 61.7355 17.5793C61.036 17.4651 60.4365 17.2796 59.9511 17.0369C59.4658 16.7942 59.2231 16.366 59.2231 15.7522C59.2231 15.1669 59.4515 14.7387 59.9226 14.4532C60.3936 14.1677 60.9789 14.0393 61.7069 14.0393C62.5491 14.0393 63.3342 14.2248 64.0622 14.6102L64.3477 16.4659L65.8465 16.2804L65.561 13.5967C65.0757 13.297 64.4904 13.0543 63.791 12.8545C63.0915 12.6546 62.3493 12.5404 61.5499 12.5404C60.4936 12.5404 59.5229 12.7974 58.6236 13.297C57.7243 13.7966 57.2818 14.6531 57.2818 15.8807C57.2818 16.78 57.5244 17.4366 58.0098 17.8506C58.4951 18.2788 59.0947 18.5643 59.8227 18.7356C60.5507 18.9069 61.2644 19.0496 61.9781 19.1781C62.6918 19.2923 63.2914 19.4921 63.7767 19.7491C64.262 20.006 64.5047 20.4485 64.5047 21.0909C64.5047 21.7475 64.1906 22.2328 63.5625 22.5469C62.9345 22.8609 62.2208 23.0179 61.4071 23.0179C60.4936 23.0179 59.6371 22.8324 58.852 22.447L58.9234 20.9196L57.4816 20.7626L57.1248 23.3748C57.6244 23.7031 58.281 23.9743 59.0804 24.1884C59.8797 24.4026 60.6791 24.5168 61.4928 24.5168C62.8774 24.5168 64.0337 24.2027 64.9615 23.5604C65.8894 22.9466 66.3604 22.0615 66.3604 20.9481Z" fill="#292F36"/>
<path d="M73.4406 29.7841V0.578369H85.2455V29.7698H73.4406V29.7841ZM84.0037 20.9481C84.0037 20.0346 83.761 19.3637 83.2756 18.9211C82.7903 18.4786 82.2051 18.1789 81.4913 18.0076C80.7776 17.8363 80.0782 17.6935 79.3787 17.5793C78.6793 17.4651 78.0797 17.2796 77.5944 17.0369C77.1091 16.7942 76.8664 16.366 76.8664 15.7522C76.8664 15.1669 77.0948 14.7387 77.5658 14.4532C78.0369 14.1677 78.6221 14.0393 79.3501 14.0393C80.1923 14.0393 80.9775 14.2248 81.7055 14.6102L81.991 16.4659L83.4898 16.2804L83.2043 13.5967C82.719 13.297 82.1337 13.0543 81.4343 12.8545C80.7348 12.6546 79.9925 12.5404 79.1931 12.5404C78.1368 12.5404 77.1662 12.7974 76.2669 13.297C75.3676 13.7966 74.9251 14.6531 74.9251 15.8807C74.9251 16.78 75.1678 17.4366 75.6531 17.8506C76.1384 18.2788 76.738 18.5643 77.466 18.7356C78.194 18.9069 78.9076 19.0496 79.6214 19.1781C80.3351 19.2923 80.9346 19.4921 81.42 19.7491C81.9053 20.006 82.148 20.4485 82.148 21.0909C82.148 21.7475 81.834 22.2328 81.2059 22.5469C80.5778 22.8609 79.8641 23.0179 79.0504 23.0179C78.1369 23.0179 77.2803 22.8324 76.4952 22.447L76.5667 20.9196L75.1249 20.7626L74.7681 23.3748C75.2677 23.7031 75.9243 23.9743 76.7237 24.1884C77.5231 24.4026 78.3224 24.5168 79.1361 24.5168C80.5207 24.5168 81.6769 24.2027 82.6048 23.5604C83.5326 22.9466 84.0037 22.0615 84.0037 20.9481Z" fill="#292F36"/>
<path d="M91.0839 29.7841V0.578369H98.8635V29.7698H91.0839V29.7841ZM92.2258 24.2741H98.0641V22.8038H96.0514V12.7831H92.183V14.2534H94.2528V22.8038H92.2401V24.2741H92.2258ZM94.053 7.4587V9.814H96.0229V7.4587H94.053Z" fill="#292F36"/>
<path d="M104.702 29.7841V0.578369H117.135V29.7698H104.702V29.7841ZM116.021 20.4057L114.466 20.0631C114.123 22.0044 113.081 22.9751 111.368 22.9751C110.226 22.9751 109.355 22.5897 108.756 21.8189C108.156 21.0481 107.856 19.9632 107.856 18.5928C107.856 17.3509 108.128 16.2946 108.656 15.4096C109.184 14.5246 110.069 14.0964 111.297 14.0964C112.239 14.0964 113.067 14.3105 113.752 14.7387L114.194 16.68L115.693 16.4945L115.251 13.7252C114.665 13.2827 114.052 12.9687 113.409 12.7974C112.767 12.6261 112.067 12.5404 111.311 12.5404C109.527 12.5404 108.17 13.1685 107.285 14.4247C106.386 15.6808 105.944 17.1083 105.944 18.6928C105.944 20.5342 106.415 21.9759 107.371 22.9894C108.313 24.0172 109.584 24.531 111.168 24.531C112.753 24.531 113.923 24.0885 114.665 23.2178C115.408 22.3328 115.864 21.4049 116.021 20.4057Z" fill="#292F36"/>
<path d="M8.12031 45.7287C7.79199 46.3283 7.30665 46.7993 6.67857 47.1276C6.03621 47.456 5.27965 47.6273 4.39463 47.6273H1.83948V39.5764H4.39463C5.27965 39.5764 6.05049 39.7334 6.67857 40.0618C7.30665 40.3901 7.79199 40.8468 8.12031 41.4607C8.44862 42.0745 8.60564 42.7739 8.60564 43.6018C8.60564 44.4155 8.44862 45.1292 8.12031 45.7287ZM6.7071 45.8858C7.26381 45.3433 7.53505 44.5868 7.53505 43.6018C7.53505 42.6169 7.26381 41.8603 6.7071 41.3179C6.15039 40.7755 5.35101 40.5043 4.2947 40.5043H2.853V46.6994H4.2947C5.35101 46.6994 6.15039 46.4282 6.7071 45.8858Z" fill="#292F36"/>
<path d="M13.9014 40.4186V43.1736H16.9562V43.973H13.9014V46.7851H17.2988V47.6273H12.8594V39.5764H17.2988V40.4186H13.9014Z" fill="#292F36"/>
<path d="M26.3204 46.5997C26.1348 46.928 25.8636 47.1992 25.4924 47.3991C25.1213 47.5989 24.6645 47.7131 24.1078 47.7131C23.5796 47.7131 23.0943 47.6132 22.6803 47.4276C22.2664 47.2278 21.9381 46.9708 21.6812 46.6282C21.4385 46.2856 21.2957 45.9002 21.2529 45.472H22.3663C22.3949 45.7004 22.4662 45.9288 22.5947 46.1429C22.7232 46.357 22.923 46.5426 23.1657 46.6853C23.4083 46.8281 23.7081 46.8994 24.065 46.8994C24.5218 46.8994 24.8787 46.7853 25.1213 46.5283C25.364 46.2714 25.4924 45.9716 25.4924 45.5862C25.4924 45.2579 25.4068 44.9867 25.2355 44.7868C25.0642 44.587 24.8501 44.4157 24.6074 44.3015C24.3647 44.1873 24.0079 44.0588 23.5796 43.9161C23.0658 43.7448 22.6661 43.5878 22.3521 43.445C22.038 43.3023 21.7811 43.0739 21.5669 42.7741C21.3528 42.4743 21.2386 42.0889 21.2386 41.6036C21.2386 41.1896 21.3386 40.8185 21.5384 40.4902C21.7382 40.1761 22.0237 39.9192 22.4091 39.7479C22.7803 39.5766 23.2371 39.491 23.7367 39.491C24.5218 39.491 25.1641 39.6765 25.6209 40.062C26.092 40.4474 26.3489 40.9327 26.4346 41.5322H25.3211C25.264 41.2182 25.0928 40.9327 24.8358 40.69C24.5646 40.4474 24.2077 40.3189 23.7509 40.3189C23.337 40.3189 22.9944 40.4331 22.7517 40.6472C22.4948 40.8613 22.3806 41.1754 22.3806 41.5608C22.3806 41.8748 22.4663 42.1318 22.6233 42.3173C22.7946 42.5172 22.9944 42.6599 23.2371 42.7741C23.4797 42.8883 23.8223 43.0025 24.2363 43.1452C24.7501 43.3165 25.1641 43.4736 25.4924 43.6306C25.8065 43.7876 26.0777 44.016 26.2918 44.3158C26.5059 44.6155 26.6201 45.0295 26.6201 45.5434C26.5916 45.9145 26.5059 46.2714 26.3204 46.5997Z" fill="#292F36"/>
<path d="M31.8874 39.5764V47.6273H30.8453V39.5764H31.8874Z" fill="#292F36"/>
<path d="M42.422 40.1903C43.0644 40.6613 43.4926 41.2894 43.7067 42.0888H42.6076C42.422 41.6034 42.0937 41.2038 41.6512 40.9183C41.2087 40.6185 40.6806 40.4758 40.0668 40.4758C39.5243 40.4758 39.0247 40.6042 38.5964 40.8612C38.1682 41.1181 37.8256 41.475 37.5687 41.946C37.326 42.4171 37.1976 42.9738 37.1976 43.6162C37.1976 44.2728 37.326 44.8438 37.5687 45.3148C37.8114 45.7859 38.1682 46.157 38.6107 46.414C39.0532 46.6709 39.5671 46.7994 40.1524 46.7994C40.652 46.7994 41.0945 46.6852 41.5084 46.4853C41.9224 46.2712 42.2507 45.9572 42.5219 45.5575C42.7931 45.1578 42.9359 44.6725 42.993 44.13H39.8241V43.3592H43.8637V44.3156C43.7924 44.958 43.5925 45.5289 43.2642 46.0571C42.9359 46.5853 42.4934 46.9849 41.9367 47.2847C41.38 47.5845 40.7519 47.7415 40.0382 47.7415C39.2673 47.7415 38.5822 47.5702 37.9826 47.2276C37.3831 46.885 36.9263 46.3997 36.598 45.7716C36.2697 45.1578 36.0984 44.4441 36.0984 43.6447C36.0984 42.8453 36.2697 42.1316 36.598 41.5178C36.9263 40.904 37.3974 40.4044 37.9826 40.0618C38.5679 39.7192 39.2531 39.5336 40.0239 39.5336C40.9946 39.5051 41.7797 39.7335 42.422 40.1903Z" fill="#292F36"/>
<path d="M54.3983 47.6273H53.3563L49.1738 41.2608V47.6273H48.1318V39.5764H49.1738L53.3563 45.9429V39.5764H54.3983V47.6273Z" fill="#292F36"/>
<path d="M69.4152 46.5997C69.2297 46.928 68.9584 47.1992 68.5873 47.3991C68.2161 47.5989 67.7594 47.7131 67.2027 47.7131C66.6745 47.7131 66.1892 47.6132 65.7752 47.4276C65.3613 47.2278 65.0329 46.9708 64.776 46.6282C64.5333 46.2856 64.3906 45.9002 64.3478 45.472H65.4612C65.4897 45.7004 65.5611 45.9288 65.6896 46.1429C65.8181 46.357 66.0179 46.5426 66.2605 46.6853C66.5032 46.8281 66.803 46.8994 67.1598 46.8994C67.6166 46.8994 67.9735 46.7853 68.2161 46.5283C68.4588 46.2714 68.5873 45.9716 68.5873 45.5862C68.5873 45.2579 68.5016 44.9867 68.3303 44.7868C68.1591 44.587 67.9449 44.4157 67.7023 44.3015C67.4596 44.1873 67.1028 44.0588 66.6745 43.9161C66.1607 43.7448 65.7609 43.5878 65.4469 43.445C65.1328 43.3023 64.8759 43.0739 64.6618 42.7741C64.4477 42.4743 64.3335 42.0889 64.3335 41.6036C64.3335 41.1896 64.4334 40.8185 64.6332 40.4902C64.833 40.1761 65.1186 39.9192 65.504 39.7479C65.8752 39.5766 66.3319 39.491 66.8315 39.491C67.6166 39.491 68.259 39.6765 68.7158 40.062C69.1868 40.4474 69.4438 40.9327 69.5294 41.5322H68.416C68.3589 41.2182 68.1876 40.9327 67.9306 40.69C67.6594 40.4474 67.3026 40.3189 66.8458 40.3189C66.4319 40.3189 66.0893 40.4331 65.8466 40.6472C65.5897 40.8613 65.4754 41.1754 65.4754 41.5608C65.4754 41.8748 65.5611 42.1318 65.7181 42.3173C65.8894 42.5172 66.0892 42.6599 66.3319 42.7741C66.5745 42.8883 66.9172 43.0025 67.3311 43.1452C67.845 43.3165 68.259 43.4736 68.5873 43.6306C68.9013 43.7876 69.1725 44.016 69.3867 44.3158C69.6008 44.6155 69.7149 45.0295 69.7149 45.5434C69.6864 45.9145 69.6008 46.2714 69.4152 46.5997Z" fill="#292F36"/>
<path d="M78.8793 39.5764V40.4186H76.6096V47.6273H75.5533V40.4186H73.2836V39.5764H78.8793Z" fill="#292F36"/>
<path d="M83.7324 39.5764V44.4012C83.7324 45.1863 83.9037 45.7716 84.2606 46.157C84.6174 46.5281 85.0885 46.728 85.7166 46.728C86.3304 46.728 86.8015 46.5424 87.1441 46.157C87.4867 45.7716 87.6579 45.2006 87.6579 44.4155V39.5907H88.7V44.4155C88.7 45.5146 88.4288 46.3425 87.8864 46.885C87.3439 47.4417 86.6159 47.7129 85.7023 47.7129C84.803 47.7129 84.0751 47.4417 83.5327 46.885C82.9902 46.3283 82.719 45.5146 82.719 44.4155V39.5907H83.7324V39.5764Z" fill="#292F36"/>
<path d="M99.4487 45.7287C99.1204 46.3283 98.635 46.7993 98.007 47.1276C97.3646 47.456 96.6081 47.6273 95.7231 47.6273H93.168V39.5764H95.7231C96.6081 39.5764 97.3789 39.7334 98.007 40.0618C98.635 40.3901 99.1204 40.8468 99.4487 41.4607C99.777 42.0745 99.9341 42.7739 99.9341 43.6018C99.9341 44.4155 99.777 45.1292 99.4487 45.7287ZM98.0498 45.8858C98.6065 45.3433 98.8778 44.5868 98.8778 43.6018C98.8778 42.6169 98.6065 41.8603 98.0498 41.3179C97.4931 40.7755 96.6938 40.5043 95.6374 40.5043H94.1957V46.6994H95.6374C96.6795 46.6994 97.4931 46.4282 98.0498 45.8858Z" fill="#292F36"/>
<path d="M105.244 39.5764V47.6273H104.202V39.5764H105.244Z" fill="#292F36"/>
<path d="M115.465 40.0047C116.064 40.3616 116.535 40.8469 116.878 41.475C117.221 42.1031 117.392 42.8168 117.392 43.6019C117.392 44.387 117.221 45.1007 116.878 45.7288C116.535 46.3569 116.064 46.8422 115.465 47.1991C114.865 47.556 114.194 47.7272 113.452 47.7272C112.71 47.7272 112.025 47.556 111.425 47.1991C110.826 46.8422 110.34 46.3569 109.998 45.7288C109.655 45.1007 109.484 44.387 109.484 43.6019C109.484 42.8168 109.655 42.1031 109.998 41.475C110.34 40.8469 110.811 40.3616 111.425 40.0047C112.039 39.6479 112.71 39.4766 113.452 39.4766C114.194 39.4766 114.865 39.6479 115.465 40.0047ZM111.953 40.8326C111.511 41.0896 111.168 41.4464 110.926 41.9318C110.683 42.4028 110.554 42.9595 110.554 43.6019C110.554 44.23 110.683 44.7867 110.926 45.272C111.168 45.7574 111.511 46.1142 111.953 46.3712C112.396 46.6281 112.881 46.7566 113.438 46.7566C113.98 46.7566 114.48 46.6281 114.922 46.3712C115.365 46.1142 115.707 45.7431 115.95 45.272C116.193 44.801 116.321 44.2443 116.321 43.6162C116.321 42.9738 116.193 42.4171 115.95 41.9461C115.707 41.475 115.365 41.1039 114.922 40.8469C114.48 40.59 113.994 40.4615 113.438 40.4615C112.895 40.4472 112.396 40.5757 111.953 40.8326Z" fill="#292F36"/>
</svg>
