<svg width="103" height="103" viewBox="0 0 103 103" fill="none" xmlns="http://www.w3.org/2000/svg">
<path d="M51.4429 101.606C79.3035 101.606 101.889 79.0205 101.889 51.1598C101.889 23.2992 79.3035 0.713623 51.4429 0.713623C23.5822 0.713623 0.996643 23.2992 0.996643 51.1598C0.996643 79.0205 23.5822 101.606 51.4429 101.606Z" fill="white"/>
<path d="M51.4428 102.32C23.2364 102.32 0.282898 79.3664 0.282898 51.1599C0.282898 22.9535 23.2364 0 51.4428 0C79.6493 0 102.603 22.9535 102.603 51.1599C102.603 79.3664 79.6493 102.32 51.4428 102.32ZM51.4428 1.42745C24.0215 1.42745 1.71035 23.7386 1.71035 51.1599C1.71035 78.5813 24.0215 100.892 51.4428 100.892C78.8642 100.892 101.175 78.5813 101.175 51.1599C101.175 23.7386 78.8642 1.42745 51.4428 1.42745Z" fill="#292F36"/>
<path d="M58.6372 5.83827C58.9798 5.86682 59.2796 5.88109 59.5223 5.88109L59.4937 6.10949C59.094 6.16658 58.7514 6.46635 58.4802 7.03733L55.0829 13.832L54.983 13.8177L54.8973 13.8035L52.7419 6.22368C52.5991 5.72407 52.3564 5.45286 52.0139 5.41003L52.0424 5.18164C52.3564 5.23874 52.7704 5.28156 53.2843 5.33866C53.9552 5.39576 54.4548 5.43858 54.7831 5.43858L54.7546 5.66697C54.4548 5.6527 54.2407 5.66697 54.1122 5.7098C53.9837 5.75262 53.9124 5.86682 53.8981 6.00956C53.8838 6.13803 53.9124 6.3236 53.9837 6.56627L55.5682 12.3617L57.9235 7.62259C58.1234 7.23717 58.2233 6.92313 58.2518 6.69474C58.2804 6.45207 58.209 6.26651 58.052 6.13803C57.895 6.00956 57.638 5.93819 57.2954 5.89537L57.324 5.66697C57.7379 5.73835 58.1805 5.79545 58.6372 5.83827Z" fill="#292F36"/>
<path d="M68.2297 8.85021C68.087 8.85021 67.9728 8.90731 67.8871 9.02151C67.8015 9.13571 67.7016 9.32127 67.6016 9.59249L65.5604 15.0168C65.4605 15.288 65.4034 15.5021 65.4034 15.6449C65.4034 15.7876 65.4462 15.9018 65.5461 15.9875C65.646 16.0731 65.8316 16.1731 66.0885 16.2872L66.0029 16.5014C65.6746 16.3586 65.2178 16.1731 64.6325 15.9447C64.0045 15.702 63.5334 15.545 63.2194 15.4451L63.305 15.2309C63.5762 15.3166 63.7761 15.3594 63.9045 15.3594C64.033 15.3594 64.1615 15.3023 64.2471 15.1881C64.3328 15.0739 64.4327 14.8883 64.5326 14.6171L66.5739 9.1928C66.6738 8.92159 66.7309 8.70747 66.7309 8.56472C66.7309 8.42198 66.6881 8.30778 66.5882 8.22214C66.4882 8.13649 66.3027 8.03657 66.0457 7.92237L66.1314 7.70825C66.4311 7.83672 66.8879 8.02229 67.516 8.26496C68.1012 8.49335 68.5723 8.65037 68.9149 8.75029L68.8293 8.96441C68.5723 8.87876 68.3725 8.83594 68.2297 8.85021Z" fill="#292F36"/>
<path d="M80.9341 16.4015C80.7913 16.373 80.6486 16.4158 80.5201 16.5014C80.3916 16.5871 80.2346 16.7584 80.0633 17.001L75.9237 22.6109L75.7096 22.4539L76.2663 13.4324L72.5977 18.3999C72.4264 18.6426 72.3122 18.8424 72.2551 18.9995C72.198 19.1565 72.2266 19.2992 72.298 19.442C72.3693 19.5847 72.5406 19.7417 72.7833 19.9416L72.6405 20.1272C72.4264 19.9416 72.1124 19.6989 71.6984 19.3849C71.3273 19.1137 71.0275 18.8995 70.7991 18.7711L70.9419 18.5855C71.1703 18.7425 71.3558 18.8282 71.4986 18.8424C71.6413 18.871 71.7841 18.8282 71.9125 18.7425C72.041 18.6426 72.198 18.4856 72.3693 18.2429L75.7381 13.6751C75.9094 13.4324 76.0236 13.2468 76.0664 13.1184C76.1093 12.9899 76.095 12.8614 76.0236 12.7472C75.9522 12.633 75.8095 12.4903 75.5811 12.3047L75.7238 12.1191C75.9094 12.2904 76.1949 12.5188 76.5803 12.79C76.8658 13.0042 77.1085 13.1755 77.3369 13.3039L76.8801 20.8694L79.8492 16.844C80.0205 16.6013 80.149 16.4015 80.1918 16.2445C80.2346 16.0875 80.2203 15.9447 80.149 15.802C80.0776 15.6592 79.9063 15.4879 79.6636 15.3024L79.8064 15.1168C80.0205 15.3024 80.3345 15.545 80.7485 15.8591C81.1196 16.1303 81.4194 16.3444 81.6478 16.4729L81.505 16.6584C81.2624 16.5157 81.0768 16.4158 80.9341 16.4015Z" fill="#292F36"/>
<path d="M85.7161 22.8391C86.0872 22.5679 86.4726 22.2681 86.8866 21.897C87.2434 22.4394 87.8715 23.3387 88.7708 24.6091C89.6701 25.8653 90.3125 26.7503 90.6979 27.2642C90.2125 27.5497 89.7986 27.8066 89.4274 28.0636C89.1134 28.292 88.8565 28.4918 88.6709 28.6488L88.5139 28.4347C88.9707 28.035 89.2847 27.7067 89.4703 27.464C89.6558 27.2214 89.7272 26.9644 89.7129 26.6932C89.6987 26.422 89.5274 26.0937 89.2561 25.694L88.885 25.1801L83.475 29.0342C83.218 29.2198 83.0324 29.3911 82.9468 29.5196C82.8612 29.648 82.8326 29.8051 82.8897 29.9764C82.9325 30.1334 83.061 30.3618 83.2466 30.6473L83.061 30.79C82.8469 30.4474 82.5186 29.9621 82.0903 29.3768C81.6335 28.7345 81.291 28.2777 81.0626 27.9922L81.2481 27.8495C81.4622 28.1207 81.6335 28.3062 81.7763 28.4062C81.919 28.5061 82.0618 28.5346 82.2188 28.4918C82.3758 28.449 82.5899 28.3348 82.8469 28.1492L88.2569 24.2951L87.8858 23.7812C87.6003 23.3815 87.3434 23.1389 87.1007 23.0247C86.858 22.9105 86.5868 22.8962 86.3013 22.9961C86.0158 23.096 85.6019 23.2816 85.0737 23.5814L84.9167 23.3673C85.1308 23.2531 85.3877 23.0818 85.7161 22.8391Z" fill="#292F36"/>
<path d="M88.4567 42.6523L88.2283 42.7237C88.1427 42.4096 88.0285 42.0099 87.8572 41.5246C87.643 40.8965 87.4718 40.4255 87.3433 40.1114L87.5717 40.04C87.6716 40.3113 87.7858 40.5111 87.8714 40.611C87.9714 40.711 88.0998 40.7395 88.2426 40.6824C88.3711 40.6396 88.5281 40.5397 88.7136 40.3826L90.2981 39.0837L89.3988 36.4143L88.0713 36.3572C87.6431 36.3287 87.3147 36.3572 87.0863 36.4429C86.858 36.5285 86.7152 36.657 86.6581 36.8426C86.6153 37.0281 86.6438 37.2993 86.7438 37.6277L86.5154 37.699C86.4012 37.2708 86.2584 36.8426 86.1157 36.4143C86.0015 36.086 85.9016 35.8148 85.8016 35.6007L86.03 35.5293C86.2299 35.8719 86.6581 36.0575 87.2862 36.0717L94.8802 36.4143L94.9373 36.5856L88.8849 41.6245C88.5138 41.9814 88.3711 42.3097 88.4567 42.6523ZM93.41 36.5856L89.67 36.4286L90.5122 38.9409L93.41 36.5856Z" fill="#292F36"/>
<path d="M89.4988 53.5724C89.6415 53.5153 89.7129 53.4439 89.7129 53.344C89.7129 53.2869 89.6986 53.2441 89.6701 53.2013C89.6415 53.1584 89.5844 53.0728 89.4988 52.9586C89.2847 52.6874 89.1276 52.4019 89.0134 52.1164C88.8992 51.8309 88.8421 51.5026 88.8421 51.1457C88.8279 50.3464 88.9849 49.6612 89.2989 49.0759C89.6272 48.4907 90.084 48.0481 90.7121 47.7341C91.3259 47.4201 92.0682 47.263 92.9389 47.2488C93.8382 47.2345 94.6233 47.3772 95.2942 47.6913C95.9651 48.0053 96.4933 48.4336 96.8644 49.0045C97.2356 49.5755 97.4354 50.2179 97.4354 50.9316C97.4354 51.2456 97.4069 51.5311 97.3498 51.7738C97.2927 52.0165 97.207 52.2306 97.1071 52.4162C97.0072 52.6017 96.8787 52.8158 96.7074 53.0442C96.636 53.1442 96.5932 53.2298 96.5932 53.2869C96.5932 53.4297 96.8359 53.5296 97.3069 53.5724V53.8436C96.8073 53.8151 95.908 53.8151 94.6233 53.8436V53.5724C95.0373 53.501 95.3799 53.4154 95.6511 53.3297C95.9223 53.2441 96.1507 53.1156 96.3505 52.9586C96.6218 52.7302 96.8502 52.4304 97.0072 52.0593C97.1642 51.6882 97.2356 51.317 97.2356 50.9173C97.2213 50.4034 97.05 49.9609 96.7074 49.5755C96.3648 49.1901 95.8795 48.9046 95.2657 48.6905C94.6376 48.4907 93.9239 48.3907 93.0959 48.405C92.1538 48.4193 91.3973 48.5335 90.7978 48.7476C90.1982 48.9617 89.77 49.2758 89.4845 49.6897C89.199 50.1037 89.0705 50.6318 89.0848 51.2742C89.0991 51.7453 89.2276 52.1449 89.4702 52.4875C89.5701 52.6303 89.6558 52.7159 89.7557 52.7587C89.8414 52.8016 89.9698 52.8158 90.1268 52.8158L91.2545 52.8016C91.5828 52.8016 91.8112 52.7587 91.9683 52.7016C92.111 52.6445 92.2252 52.5304 92.268 52.3591C92.3251 52.202 92.3537 51.9451 92.3537 51.6025H92.5821C92.5678 51.9879 92.5535 52.5304 92.5678 53.2584C92.5821 53.8008 92.5963 54.2147 92.6249 54.4717H92.3965C92.3822 54.2861 92.3394 54.1577 92.2966 54.0863C92.2538 54.0149 92.1538 53.9578 92.0254 53.9293C91.8969 53.9007 91.6828 53.8864 91.383 53.9007L89.0705 53.9435V53.7151C89.199 53.658 89.356 53.6295 89.4988 53.5724Z" fill="#292F36"/>
<path d="M87.8001 65.72C87.3862 65.5915 86.9008 65.463 86.3441 65.3488C86.5297 64.8492 86.8009 64.007 87.1863 62.8079C87.6431 61.3805 87.9714 60.2956 88.1713 59.5676L88.3996 59.639C88.3283 59.9102 88.2997 60.1101 88.2997 60.2528C88.314 60.3955 88.3711 60.4955 88.4853 60.5811C88.5995 60.6668 88.7993 60.7524 89.0706 60.8381L94.5948 62.5796C94.8803 62.6652 95.0801 62.708 95.2229 62.708C95.3656 62.708 95.4798 62.6509 95.5655 62.5367C95.6511 62.4225 95.7368 62.237 95.8367 61.98L96.0651 62.0514C95.8081 62.7794 95.4655 63.85 95.0088 65.2774C94.6662 66.3623 94.4235 67.1474 94.3093 67.6185C93.8382 67.4186 93.41 67.2473 93.0103 67.1331C92.7248 67.0475 92.4822 66.9761 92.3109 66.9476L92.3965 66.6906C92.8961 66.7905 93.2815 66.8334 93.5385 66.8334C93.7954 66.8334 94.0095 66.7477 94.1808 66.5764C94.3521 66.4194 94.4949 66.1339 94.6233 65.7485L94.9088 64.8207C94.9945 64.5494 95.0373 64.3496 95.023 64.2211C95.0088 64.0927 94.9659 63.9785 94.8517 63.8928C94.7375 63.8072 94.552 63.7215 94.2665 63.6359L91.64 62.8079L91.4116 63.5502C91.2974 63.9214 91.3259 64.2069 91.5115 64.4067C91.6971 64.6065 91.8969 64.7493 92.1253 64.8492C92.3537 64.9491 92.4964 65.0205 92.5535 65.049L92.4679 65.306C92.111 65.1632 91.7684 65.0348 91.4258 64.9349L90.8977 64.7778C90.5266 64.6636 89.9841 64.5066 89.2989 64.3496L89.3846 64.0927C89.4417 64.1069 89.6273 64.1355 89.9413 64.2069C90.2553 64.2639 90.5266 64.2354 90.7407 64.1212C90.9548 64.007 91.0975 63.7929 91.1975 63.4931L91.4258 62.7508L88.7422 61.9087C88.4567 61.823 88.2569 61.7802 88.1142 61.7802C87.9714 61.7802 87.8572 61.8373 87.7858 61.9515C87.7002 62.0657 87.6145 62.2512 87.5289 62.5225L87.272 63.3361C87.1292 63.8072 87.0721 64.1783 87.1292 64.4495C87.172 64.735 87.3148 64.9634 87.5574 65.1632C87.8001 65.3488 88.1713 65.5629 88.6709 65.7913L88.5852 66.0483C88.4139 65.9198 88.1427 65.8342 87.8001 65.72Z" fill="#292F36"/>
<path d="M83.7318 83.2349C83.7889 83.1064 83.7747 82.978 83.7176 82.8495C83.6605 82.721 83.5177 82.564 83.3036 82.3499L79.1069 78.3387C78.8928 78.1389 78.7215 78.0104 78.593 77.9533C78.4645 77.8962 78.3361 77.8962 78.2076 77.9533C78.0791 78.0104 77.9221 78.1389 77.7223 78.3387L77.551 78.1817C77.8222 77.939 78.1648 77.5822 78.6073 77.1397C79.0641 76.6543 79.4067 76.2832 79.6208 76.0405L79.7921 76.1975C79.6065 76.4117 79.4923 76.583 79.4352 76.6972C79.3781 76.8256 79.3924 76.9541 79.4495 77.0826C79.5066 77.211 79.6493 77.3681 79.8634 77.5822L84.0601 81.5933C84.2743 81.7932 84.4456 81.9216 84.574 81.9787C84.7025 82.0358 84.831 82.0358 84.9594 81.9787C85.0879 81.9216 85.2449 81.7932 85.4448 81.5933L85.6161 81.7503C85.3734 81.9645 85.0165 82.3213 84.5598 82.8067C84.1173 83.2634 83.7889 83.6346 83.5605 83.9058L83.3892 83.7488C83.5605 83.5347 83.6747 83.3634 83.7318 83.2349Z" fill="#292F36"/>
<path d="M71.8412 91.9422C71.9268 91.8138 71.9411 91.6853 71.9126 91.5283C71.884 91.3713 71.7841 91.1714 71.6271 90.9002L68.087 84.8906L68.3154 84.7479L76.3948 88.7876L73.2686 83.4774C73.1116 83.2205 72.9831 83.0349 72.8547 82.935C72.7262 82.8351 72.5835 82.7923 72.4264 82.8065C72.2694 82.8208 72.0553 82.9065 71.7841 83.0492L71.6556 82.8494C71.9126 82.7352 72.2551 82.5353 72.6976 82.2784C73.0973 82.0357 73.3971 81.8501 73.6112 81.6931L73.7254 81.893C73.497 82.0357 73.34 82.1784 73.2686 82.3069C73.183 82.4354 73.1687 82.5639 73.1973 82.7209C73.2258 82.8779 73.3257 83.0777 73.4827 83.349L76.3662 88.2451C76.509 88.5021 76.6374 88.6734 76.7516 88.759C76.8658 88.8447 76.98 88.8875 77.1228 88.8589C77.2512 88.8304 77.4511 88.759 77.6937 88.6305L77.8079 88.8304C77.5795 88.9446 77.2655 89.1159 76.8515 89.3585C76.5518 89.5298 76.2948 89.7011 76.0807 89.8439L69.3003 86.4608L71.8412 90.7717C71.9982 91.0287 72.1267 91.2142 72.2551 91.3142C72.3693 91.4141 72.5121 91.4569 72.6834 91.4426C72.8547 91.4283 73.0688 91.3427 73.34 91.2L73.4542 91.3998C73.1973 91.514 72.8547 91.7138 72.4122 91.9708C72.0125 92.2134 71.7127 92.399 71.4986 92.556L71.3844 92.3562C71.5985 92.1992 71.7555 92.0564 71.8412 91.9422Z" fill="#292F36"/>
<path d="M63.9902 93.8124C64.0901 94.2549 64.2186 94.7403 64.3899 95.2541C63.7475 95.3683 62.677 95.5967 61.1639 95.9108C59.6508 96.2391 58.5944 96.4817 57.9664 96.6388C57.895 96.082 57.8236 95.5967 57.7237 95.1542C57.638 94.7688 57.5667 94.4548 57.481 94.2264L57.738 94.1693C57.9235 94.7545 58.0948 95.1685 58.2518 95.4397C58.4089 95.7109 58.6087 95.8822 58.8656 95.9679C59.1226 96.0535 59.4937 96.0392 59.9648 95.9393L60.5786 95.8108L59.1797 89.3159C59.1083 89.0019 59.0369 88.7735 58.937 88.645C58.8371 88.5165 58.7229 88.4309 58.5516 88.4166C58.3803 88.3881 58.1234 88.4166 57.7808 88.4737L57.738 88.2453C58.1376 88.1882 58.7086 88.074 59.4224 87.917C60.1789 87.7457 60.7499 87.6173 61.1068 87.5173L61.1496 87.7457C60.807 87.8314 60.5786 87.917 60.4358 88.0027C60.2931 88.0883 60.2075 88.2168 60.1789 88.3738C60.1504 88.5308 60.1646 88.7735 60.236 89.0875L61.6349 95.5824L62.2487 95.454C62.7198 95.3541 63.0624 95.2113 63.2622 95.0257C63.462 94.8402 63.5762 94.5975 63.6048 94.2977C63.6333 93.998 63.6191 93.5412 63.5477 92.9417L63.8046 92.8846C63.8475 93.1129 63.9046 93.427 63.9902 93.8124Z" fill="#292F36"/>
<path d="M45.0479 89.8011C45.0907 89.3586 45.105 88.859 45.105 88.3022C45.6331 88.3736 46.5182 88.4593 47.7743 88.5735C49.2589 88.7019 50.3865 88.8019 51.1574 88.8447L51.1431 89.0731C50.8576 89.0588 50.6578 89.0731 50.5293 89.1159C50.4008 89.1587 50.3009 89.2301 50.2438 89.3586C50.1867 89.487 50.1439 89.7012 50.1153 89.9866L49.6014 95.7678C49.5729 96.0533 49.5872 96.2674 49.6157 96.4102C49.6443 96.5529 49.7299 96.6528 49.8584 96.7099C49.9869 96.767 50.1867 96.8241 50.4579 96.8527L50.4436 97.0811C49.6871 96.9954 48.5594 96.8812 47.0749 96.7528C45.9329 96.6528 45.1192 96.5958 44.6339 96.5672C44.7338 96.0676 44.8052 95.6108 44.8338 95.1968C44.8623 94.8971 44.8766 94.6544 44.8623 94.4688L45.1335 94.4974C45.1478 95.0113 45.1763 95.3824 45.2477 95.6394C45.3048 95.8963 45.4333 96.0819 45.6331 96.2103C45.8187 96.3388 46.1327 96.4245 46.5324 96.453L47.5031 96.5386C47.7886 96.5672 47.9884 96.5529 48.1169 96.5244C48.2454 96.4958 48.3453 96.4102 48.4024 96.2817C48.4595 96.1532 48.5023 95.9391 48.5309 95.6536L48.7735 92.9129L48.0027 92.8415C47.6173 92.813 47.3461 92.8986 47.1891 93.127C47.0463 93.3554 46.9321 93.5838 46.8893 93.8265C46.8322 94.0692 46.8036 94.2262 46.7894 94.2975L46.5181 94.269C46.5752 93.8836 46.6181 93.5267 46.6609 93.1699L46.7037 92.6132C46.7323 92.2135 46.7608 91.671 46.7894 90.9573L47.0606 90.9859C47.0606 91.043 47.0749 91.2285 47.0749 91.5568C47.0891 91.8852 47.1605 92.1421 47.3318 92.3134C47.4888 92.499 47.7315 92.5989 48.0455 92.6274L48.8164 92.6988L49.059 89.901C49.0876 89.6155 49.0733 89.4014 49.0447 89.2586C49.0162 89.1302 48.9305 89.0302 48.8021 88.9732C48.6736 88.9161 48.4738 88.8732 48.2025 88.8447L47.3461 88.7733C46.8607 88.7305 46.4896 88.759 46.2184 88.8732C45.9614 88.9731 45.7616 89.173 45.6189 89.4442C45.4761 89.7154 45.3619 90.1294 45.2477 90.6718L44.9765 90.6433C44.9765 90.4292 45.0051 90.1437 45.0479 89.8011Z" fill="#292F36"/>
<path d="M33.8138 84.5053C34.028 84.4625 34.2706 84.5053 34.5276 84.6195C34.8273 84.748 35.0272 84.9335 35.1414 85.1762C35.2556 85.4331 35.2698 85.79 35.1985 86.2611L34.9844 87.4316C34.913 87.8455 34.8702 88.1596 34.8559 88.4023C34.8416 88.6306 34.8987 88.8448 34.9986 89.0303C35.0986 89.2159 35.2841 89.3586 35.5553 89.4728L36.5831 89.9011L37.6251 87.4173C37.7393 87.1461 37.7964 86.9462 37.8107 86.8035C37.825 86.6608 37.7679 86.5466 37.668 86.4466C37.568 86.3467 37.3968 86.2468 37.1398 86.1326L37.2255 85.9185C37.5538 86.0755 37.9963 86.2753 38.5815 86.518C39.1953 86.775 39.6664 86.9605 39.9804 87.0604L39.8948 87.2746C39.6236 87.1746 39.4237 87.1318 39.2953 87.1175C39.1525 87.1175 39.0383 87.1604 38.9527 87.2746C38.8528 87.3745 38.7528 87.5601 38.6386 87.8313L36.3975 93.1842C36.2833 93.4554 36.2262 93.6553 36.212 93.798C36.1977 93.9408 36.2548 94.055 36.3547 94.1549C36.4546 94.2548 36.6259 94.3547 36.8829 94.4832L36.7972 94.6973C36.4975 94.5546 36.0692 94.3547 35.4982 94.1121C35.2127 93.9979 34.913 93.8694 34.5704 93.7267C34.2278 93.5839 33.9994 93.4983 33.8709 93.4412C33.3142 93.1985 32.8717 92.9273 32.5434 92.599C32.2151 92.2707 32.0295 91.9281 31.9439 91.5569C31.8582 91.1858 31.9011 90.8289 32.0581 90.4721C32.1723 90.1866 32.3578 89.9296 32.6148 89.7012C32.8717 89.4728 33.2 89.3015 33.5997 89.2159C33.9994 89.1303 34.4847 89.1445 35.0129 89.273L34.8844 89.2016C34.5847 89.0161 34.3563 88.8305 34.2135 88.6306C34.0708 88.4451 33.9709 88.231 33.9423 88.0026C33.8995 87.7742 33.9138 87.4887 33.9709 87.1461L34.1707 85.9328C34.2135 85.6901 34.2421 85.5045 34.2421 85.3618C34.2421 85.219 34.2278 85.1048 34.185 85.0192C34.1422 84.9335 34.0708 84.8622 33.9709 84.8336C33.8567 84.7765 33.7425 84.7765 33.6426 84.8051C33.5426 84.8336 33.3999 84.905 33.2143 85.0049L33.1001 84.8193C33.3571 84.6623 33.5997 84.5481 33.8138 84.5053ZM34.5276 89.587C34.185 89.6299 33.9138 89.7583 33.6996 89.9724C33.4855 90.1866 33.3 90.4721 33.1429 90.8432C32.9003 91.4285 32.8432 91.9423 33.0002 92.3563C33.1572 92.7703 33.5426 93.1128 34.185 93.3841C34.4134 93.484 34.5847 93.5268 34.7274 93.5125C34.8559 93.5125 34.9701 93.4554 35.07 93.3412C35.1699 93.227 35.2698 93.0415 35.3698 92.7845L36.4832 90.1295L35.7552 89.8297C35.2841 89.6299 34.8702 89.5442 34.5276 89.587Z" fill="#292F36"/>
<path d="M22.6797 86.4467C22.8082 86.4896 22.9366 86.461 23.0508 86.3896C23.165 86.3183 23.322 86.1613 23.5076 85.9329L27.0905 81.365C27.2761 81.1366 27.3903 80.951 27.4331 80.8226C27.4759 80.6941 27.4617 80.5656 27.3903 80.4514C27.3189 80.3372 27.1762 80.1802 26.962 79.9947L27.1048 79.8091C27.376 80.0517 27.7471 80.3658 28.2468 80.7512C28.7749 81.1652 29.1746 81.4649 29.4458 81.6505L29.3031 81.8361C29.0747 81.6648 28.8891 81.5648 28.7606 81.5363C28.6322 81.4935 28.5037 81.5078 28.3895 81.5934C28.2753 81.6648 28.1183 81.8218 27.9327 82.0502L24.3498 86.618C24.1642 86.8464 24.05 87.032 24.0072 87.1605C23.9644 87.2889 23.9787 87.4174 24.05 87.5316C24.1214 87.6458 24.2642 87.8028 24.4783 87.9884L24.3355 88.174C24.0929 87.9598 23.7075 87.6458 23.1793 87.2176C22.6797 86.8322 22.28 86.5324 21.9945 86.3325L22.1373 86.147C22.3799 86.304 22.5512 86.4039 22.6797 86.4467Z" fill="#292F36"/>
<path d="M13.4583 76.2832C13.4012 75.6409 13.544 74.9985 13.8723 74.3847C14.2149 73.7566 14.7288 73.1999 15.4425 72.6717C16.1419 72.1721 16.8414 71.8438 17.5694 71.7154C18.2974 71.5869 18.9683 71.6297 19.5964 71.8724C20.2245 72.115 20.7526 72.529 21.1666 73.1143C21.6091 73.7138 21.8517 74.3419 21.9088 74.9842C21.9659 75.6266 21.8232 76.2689 21.4949 76.8827C21.1523 77.5108 20.6384 78.0675 19.9247 78.5957C19.2252 79.0953 18.5258 79.4236 17.7978 79.5521C17.0841 79.6805 16.3989 79.6377 15.7708 79.3951C15.1427 79.1524 14.6146 78.7384 14.2006 78.1674C13.7581 77.5536 13.5154 76.9256 13.4583 76.2832ZM15.5995 78.8241C16.0991 78.924 16.6701 78.8812 17.2982 78.6813C17.9263 78.4815 18.5543 78.1532 19.211 77.6678C19.8676 77.1968 20.3815 76.6829 20.7383 76.1405C21.1095 75.598 21.3093 75.0556 21.3379 74.5417C21.3807 74.0278 21.2522 73.571 20.981 73.1856C20.6812 72.7859 20.2958 72.529 19.7819 72.4291C19.2823 72.3292 18.7114 72.372 18.0833 72.5718C17.4552 72.7717 16.8271 73.1 16.1705 73.571C15.5139 74.0421 15 74.556 14.6431 75.1127C14.272 75.6551 14.0721 76.1833 14.0293 76.7114C13.9865 77.2253 14.115 77.6821 14.3862 78.0675C14.6859 78.4672 15.0856 78.7242 15.5995 78.8241Z" fill="#292F36"/>
<path d="M14.5574 59.0967C14.7287 59.2252 14.8572 59.4393 14.9428 59.7248C15.0428 60.0246 15.0285 60.3101 14.9143 60.5527C14.8001 60.8097 14.5289 61.0523 14.1149 61.295L13.0729 61.8803C12.716 62.0944 12.4448 62.2657 12.2592 62.4084C12.0737 62.5512 11.9452 62.7225 11.8738 62.9223C11.8024 63.1222 11.8024 63.3506 11.8881 63.636L12.2164 64.7066L14.7858 63.9073C15.0713 63.8216 15.2569 63.736 15.3711 63.6503C15.4853 63.5647 15.5424 63.4505 15.5567 63.322C15.5709 63.1935 15.5281 62.9794 15.4567 62.7082L15.6851 62.6368C15.7708 62.9794 15.8992 63.4647 16.0991 64.0643C16.2989 64.7066 16.4559 65.1777 16.5701 65.4775L16.3418 65.5488C16.2418 65.2776 16.1562 65.092 16.0705 64.9921C15.9849 64.8922 15.8707 64.8208 15.7279 64.8208C15.5852 64.8208 15.3711 64.8494 15.0999 64.9493L9.56135 66.6622C9.27586 66.7479 9.09029 66.8335 8.97609 66.9192C8.86189 67.0048 8.8048 67.119 8.79052 67.2475C8.77625 67.3902 8.81907 67.5901 8.89044 67.8613L8.66205 67.9327C8.59068 67.6186 8.46221 67.1619 8.27664 66.5623C8.19099 66.2768 8.07679 65.9485 7.9626 65.6059C7.8484 65.2633 7.76275 65.0207 7.71993 64.8922C7.53436 64.3069 7.47726 63.7931 7.52009 63.3363C7.56291 62.8795 7.70566 62.5084 7.93405 62.2086C8.16244 61.9088 8.46221 61.709 8.83334 61.5948C9.11884 61.5091 9.43288 61.4806 9.77546 61.5234C10.1181 61.5662 10.4464 61.709 10.789 61.9659C11.1315 62.2229 11.417 62.594 11.6597 63.0936L11.6454 62.9509C11.6026 62.594 11.5883 62.3085 11.6454 62.0658C11.7025 61.8232 11.8024 61.6233 11.9452 61.452C12.1022 61.2807 12.3306 61.0952 12.6304 60.9239L13.6867 60.2958C13.9008 60.1816 14.0721 60.0674 14.172 59.9818C14.2719 59.8961 14.3576 59.8105 14.4004 59.7248C14.4432 59.6392 14.4432 59.5392 14.4147 59.4393C14.3719 59.3109 14.3148 59.2252 14.2291 59.1681C14.1435 59.111 14.0007 59.0396 13.8009 58.9683L13.8723 58.7542C14.1577 58.8541 14.4004 58.9683 14.5574 59.0967ZM11.1458 62.9223C10.9032 62.6939 10.6177 62.5655 10.3179 62.5369C10.0181 62.5084 9.67554 62.5512 9.29013 62.6796C8.67632 62.8652 8.26236 63.165 8.03397 63.5504C7.80558 63.9358 7.80558 64.464 8.00542 65.1063C8.07679 65.3347 8.16244 65.506 8.24809 65.6059C8.33374 65.7058 8.46221 65.7629 8.60495 65.7629C8.7477 65.7629 8.96182 65.7201 9.21876 65.6488L11.9595 64.7923L11.7311 64.0357C11.5883 63.5218 11.3885 63.1507 11.1458 62.9223Z" fill="#292F36"/>
<path d="M13.4583 45.5502C14.0008 45.3075 14.3291 44.8507 14.4718 44.1655C14.5146 43.9086 14.5146 43.6516 14.4433 43.409C14.3719 43.1663 14.2434 42.9522 14.0436 42.7666C13.8437 42.5811 13.5725 42.4526 13.2157 42.3955C12.9159 42.3384 12.6447 42.3669 12.3877 42.4669C12.1308 42.5668 11.8738 42.7238 11.6312 42.9379C11.3885 43.152 11.103 43.4375 10.789 43.7944C10.4321 44.1941 10.1181 44.5224 9.84686 44.7508C9.57565 44.9935 9.27588 45.1647 8.94757 45.2932C8.61926 45.4217 8.24812 45.436 7.83416 45.3646C7.40592 45.2789 7.04906 45.1219 6.79211 44.865C6.53517 44.608 6.3496 44.3083 6.26396 43.9514C6.17831 43.5945 6.17831 43.2234 6.24968 42.8237C6.29251 42.5811 6.3496 42.3955 6.42098 42.2242C6.49235 42.0529 6.56372 41.9244 6.64937 41.8245C6.73502 41.7246 6.82066 41.6104 6.93486 41.4962C7.0776 41.3392 7.14898 41.225 7.17753 41.1393C7.1918 41.068 7.16325 41.0109 7.09188 40.9538C7.02051 40.8967 6.89204 40.8538 6.72074 40.7967L6.76357 40.5398C7.20608 40.654 7.9769 40.8253 9.10459 41.0394L9.06177 41.2963C8.66208 41.2535 8.29094 41.2678 7.9198 41.3534C7.56294 41.4248 7.2489 41.5818 6.99196 41.8245C6.73502 42.0529 6.56372 42.3812 6.49235 42.7809C6.43525 43.0521 6.44953 43.2948 6.5209 43.5374C6.59227 43.7801 6.72074 43.9657 6.89204 44.1227C7.07761 44.2797 7.29172 44.3796 7.54866 44.4367C7.96263 44.5081 8.31949 44.451 8.61926 44.2512C8.91902 44.0513 9.20451 43.7944 9.47573 43.4946C9.74694 43.1949 9.91824 42.995 10.0182 42.8951C10.4178 42.4669 10.7462 42.1385 11.0174 41.8959C11.2886 41.6532 11.5884 41.4819 11.9167 41.3677C12.245 41.2535 12.6019 41.2392 12.9873 41.3106C13.4583 41.3963 13.8437 41.5818 14.1292 41.8531C14.4147 42.1385 14.6003 42.4669 14.7002 42.8665C14.8001 43.2662 14.8001 43.6945 14.7145 44.1513C14.6431 44.5224 14.5575 44.8079 14.429 45.0363C14.3148 45.2647 14.1578 45.4645 13.9865 45.6501C13.8437 45.8071 13.7724 45.9213 13.7438 46.0069C13.7295 46.0783 13.7581 46.1354 13.8295 46.1925C13.9008 46.2496 14.0293 46.3067 14.2006 46.3495L14.1578 46.6065C13.7438 46.4923 12.8302 46.3067 11.4171 46.0498L11.4599 45.7928C12.2593 45.8642 12.9159 45.7928 13.4583 45.5502Z" fill="#292F36"/>
<path d="M10.632 33.5165C10.2323 33.3024 9.77548 33.1026 9.2616 32.9027C9.57564 32.346 10.1038 31.3754 10.8175 29.9907C11.5312 28.6204 12.0309 27.6497 12.3021 27.0645C12.7731 27.3642 13.2014 27.6212 13.5868 27.821C13.9294 28.0066 14.2291 28.135 14.4575 28.235L14.3291 28.4776C13.7581 28.2492 13.3298 28.1065 13.0301 28.0637C12.7303 28.0066 12.4591 28.0637 12.2307 28.2064C12.0023 28.3492 11.7739 28.6347 11.5598 29.0629L11.2743 29.6339L17.1697 32.7029C17.4552 32.8599 17.6836 32.9313 17.8406 32.9456C17.9976 32.9598 18.1404 32.917 18.2688 32.8028C18.3973 32.6886 18.54 32.4745 18.7113 32.1747L18.9255 32.2889C18.7113 32.6458 18.4401 33.1454 18.0975 33.802C17.7407 34.4872 17.4837 35.0154 17.3267 35.3437L17.1126 35.2295C17.2553 34.9154 17.3553 34.6728 17.3695 34.5158C17.3981 34.3445 17.3553 34.2017 17.2411 34.0733C17.1269 33.9448 16.9413 33.8163 16.6558 33.6593L10.7604 30.576L10.4607 31.1327C10.2323 31.5609 10.1323 31.9035 10.1466 32.1747C10.1609 32.446 10.2751 32.6886 10.4892 32.9027C10.7033 33.1169 11.0602 33.4023 11.5741 33.7307L11.4456 33.9733C11.26 33.8591 10.9745 33.7021 10.632 33.5165Z" fill="#292F36"/>
<path d="M20.7098 17.1153C20.9525 16.8726 21.1523 16.6442 21.2951 16.4729L21.4663 16.6442C21.3807 16.7727 21.3379 16.9582 21.3522 17.1724C21.3664 17.3865 21.4235 17.6862 21.5377 18.0431L22.8367 21.9115L24.3498 23.4103C24.5639 23.6102 24.7209 23.7529 24.8494 23.81C24.9779 23.8671 25.1064 23.8671 25.2348 23.81C25.3633 23.7529 25.5203 23.6244 25.7344 23.4389L25.9057 23.6102C25.6345 23.8528 25.2777 24.1954 24.8351 24.6379C24.3641 25.109 24.0215 25.4801 23.8074 25.7228L23.6361 25.5515C23.8216 25.3374 23.9501 25.1804 24.0072 25.0519C24.0643 24.9234 24.0643 24.795 23.9929 24.6665C23.9358 24.538 23.7931 24.3667 23.5933 24.1669L22.3371 22.925L17.5694 21.5261C17.2839 21.4404 17.0698 21.4119 16.927 21.4262C16.7843 21.4404 16.6844 21.4833 16.613 21.5546L16.4417 21.3833C16.6701 21.1835 16.927 20.9551 17.184 20.6839C17.7121 20.1415 18.0976 19.756 18.3117 19.4991L18.483 19.6704C18.0976 20.0558 18.0119 20.3556 18.226 20.5697C18.3117 20.6553 18.4259 20.7124 18.5972 20.7695L22.6083 22.0114L21.552 18.8567C21.395 18.4 21.238 18.0859 21.0667 17.9289C20.9096 17.7719 20.7383 17.7291 20.5528 17.7862C20.3672 17.8433 20.1531 17.986 19.8961 18.2287L19.7249 18.0574C20.0674 17.7433 20.3815 17.4293 20.7098 17.1153Z" fill="#292F36"/>
<path d="M29.3459 11.3627C29.2603 11.4627 29.2174 11.5911 29.246 11.7339C29.2745 11.8766 29.3459 12.0765 29.4887 12.3334L32.2436 17.4437C32.3864 17.7006 32.5006 17.8719 32.6148 17.9718C32.7147 18.0718 32.8432 18.1003 32.9716 18.086C33.1001 18.0718 33.3 17.9861 33.5426 17.8576L34.2992 17.4437C34.7274 17.2153 35.0272 16.9726 35.1842 16.73C35.3412 16.4873 35.3983 16.2161 35.3555 15.8878C35.3127 15.5594 35.1842 15.1455 34.9558 14.603L35.1985 14.4746C35.2984 14.703 35.4411 14.9885 35.6267 15.331C35.8408 15.7165 36.0978 16.1447 36.4118 16.6158C35.9407 16.8442 35.1414 17.2581 34.0422 17.8576C32.729 18.5714 31.7298 19.1138 31.0731 19.4992L30.9589 19.2994C31.2016 19.1566 31.3729 19.0282 31.4585 18.9282C31.5442 18.8283 31.587 18.6998 31.5585 18.5571C31.5299 18.4144 31.4585 18.2145 31.3158 17.9576L28.5323 12.8473C28.3895 12.5903 28.2753 12.419 28.1611 12.3191C28.0612 12.2192 27.9327 12.1907 27.8043 12.2049C27.6615 12.2192 27.4759 12.2906 27.219 12.419L27.1191 12.2049C27.4188 12.0765 27.8614 11.8481 28.4466 11.5197C29.0033 11.22 29.4316 10.9773 29.7313 10.7917L29.8455 10.9916C29.6028 11.1343 29.4458 11.2628 29.3459 11.3627Z" fill="#292F36"/>
<path d="M46.7323 12.2761C46.8179 12.7043 46.9464 13.1897 47.1034 13.7321C46.5753 13.8178 45.7045 13.9748 44.4769 14.2174C43.0066 14.5029 41.9075 14.7313 41.1509 14.9026L41.1081 14.6742C41.3793 14.6029 41.5792 14.5458 41.6934 14.4601C41.8076 14.3887 41.8789 14.2745 41.8932 14.1461C41.9075 14.0033 41.8932 13.7892 41.8361 13.5037L40.7227 7.80817C40.6656 7.52268 40.6085 7.32284 40.5229 7.19437C40.4372 7.0659 40.3516 6.99452 40.2088 6.98025C40.0803 6.9517 39.8662 6.96597 39.595 7.0088L39.5522 6.78041C40.3087 6.65194 41.4221 6.45209 42.8782 6.1666C44.0058 5.93821 44.8052 5.78119 45.262 5.66699C45.3048 6.18088 45.3762 6.63766 45.4476 7.03735C45.5047 7.33711 45.5618 7.56551 45.6189 7.7368L45.3619 7.7939C45.2049 7.30856 45.0622 6.9517 44.9337 6.72331C44.8052 6.49492 44.6196 6.35217 44.4055 6.2808C44.1771 6.20942 43.8774 6.20942 43.4634 6.29507L42.507 6.48064C42.2358 6.53774 42.036 6.59484 41.9218 6.66621C41.8076 6.73758 41.7362 6.8375 41.7076 6.98025C41.6934 7.12299 41.7076 7.33711 41.7647 7.6226L42.2929 10.3348L43.0494 10.1777C43.4349 10.1064 43.6633 9.93508 43.7489 9.67814C43.8345 9.4212 43.8631 9.17853 43.8488 8.93586C43.8345 8.69319 43.8203 8.53617 43.8203 8.4648L44.0772 8.4077C44.12 8.79312 44.1771 9.14998 44.2485 9.49257L44.3627 10.035C44.4341 10.4204 44.5625 10.9628 44.7481 11.648L44.4912 11.7051C44.4769 11.648 44.4198 11.4767 44.3199 11.1627C44.22 10.8486 44.0772 10.6345 43.8631 10.5061C43.649 10.3776 43.4063 10.349 43.0923 10.4061L42.3357 10.5489L42.8782 13.3039C42.9352 13.5894 42.9923 13.7892 43.0637 13.9177C43.1351 14.0319 43.235 14.1032 43.3778 14.1318C43.5062 14.1461 43.7204 14.1318 43.9916 14.0747L44.8338 13.9034C45.3048 13.8035 45.6617 13.675 45.8901 13.5037C46.1185 13.3324 46.2469 13.0898 46.304 12.79C46.3611 12.4902 46.3611 12.062 46.3183 11.5053L46.5753 11.4482C46.6181 11.6623 46.6609 11.9335 46.7323 12.2761Z" fill="#292F36"/>
<path d="M37.1112 66.7905C36.4546 65.9054 35.8836 64.9348 35.384 63.8642C34.8844 62.7936 34.4847 61.7087 34.1849 60.5953C33.5283 55.6991 33.514 50.9457 34.1278 46.335C34.7416 41.7244 35.7408 37.1851 37.1112 32.7029C37.3396 32.2033 37.8392 31.9606 38.61 31.9606C39.3808 31.9606 40.1374 32.1319 40.9082 32.4745C41.679 32.8171 42.3071 33.2738 42.8067 33.8448C43.3063 34.4158 43.4205 35.0153 43.1493 35.6291C42.7211 36.5427 42.3071 37.7846 41.8932 39.3262C41.4792 40.8822 41.0652 42.5951 40.6941 44.4651C40.3087 46.335 39.9804 48.3049 39.6949 50.3462C39.4094 52.3874 39.1953 54.3573 39.0668 56.2273C38.9383 58.0973 38.9098 59.7959 38.9811 61.309C39.0525 62.8221 39.2809 64.0212 39.6663 64.8919C41.4649 62.4795 43.1065 59.9815 44.6053 57.3978C46.1041 54.8141 47.503 52.2019 48.8163 49.5325C50.1296 46.8775 51.3857 44.1939 52.5705 41.4674C53.7553 38.7553 54.9258 36.0717 56.0678 33.4309C56.6388 32.0891 57.2097 30.6759 57.7664 29.1913C58.3231 27.6925 59.0511 26.4221 59.979 25.3515C60.3644 25.0089 60.6642 24.8947 60.864 25.0089C61.0781 25.1231 61.2209 25.3372 61.2922 25.6655C61.3636 25.9938 61.4064 26.3364 61.4064 26.6933C61.4064 27.0501 61.4064 27.3356 61.4064 27.5212C61.1352 29.277 60.9068 31.0185 60.7213 32.7457C60.5357 34.4729 60.1217 36.1288 59.5222 37.7418C58.523 40.2684 57.5095 42.7664 56.4532 45.2645C55.3969 47.7482 54.2692 50.2034 53.0701 52.6158C51.8711 55.0282 50.5578 57.3693 49.1732 59.6389C47.7743 61.9228 46.2612 64.0926 44.6053 66.1481C43.3063 67.7897 42.0073 68.6604 40.7369 68.7603C39.4094 68.8745 38.2246 68.2036 37.1112 66.7905Z" fill="#292F36" stroke="white" stroke-miterlimit="10"/>
<path d="M60.7498 60.3098C59.979 59.2392 59.2224 58.1543 58.4802 57.0409C57.7379 55.9275 57.3668 54.7142 57.3668 53.3724C57.3668 51.8878 57.795 50.4746 58.6515 49.1471C59.5079 47.8338 60.4929 46.7632 61.6063 45.9639C62.0631 45.6641 62.5341 45.4072 63.0052 45.2216C63.4763 45.036 63.9901 45.0503 64.5326 45.2787C64.761 45.3929 65.0036 45.4785 65.2463 45.5356C65.489 45.5927 65.7174 45.6641 65.9029 45.7355C66.0885 45.8068 66.3026 45.921 66.531 46.0781C66.7594 46.2351 66.8736 46.4349 66.8736 46.7061C66.8736 47.7767 66.9021 48.6475 66.9592 49.3184C67.0163 49.9893 67.102 50.5603 67.2162 51.0456C67.3304 51.5309 67.4446 51.9449 67.5588 52.3018C67.673 52.6729 67.7872 53.0583 67.9014 53.4723C67.9727 53.8577 67.9585 54.186 67.8443 54.4429C67.7301 54.7142 67.4446 54.7427 66.9878 54.5571C66.1456 54.2574 65.5175 53.6436 65.1178 52.7157C64.7181 51.7879 64.4184 50.96 64.2328 50.1891C64.19 50.0321 64.1043 49.7752 63.9473 49.3898C63.7903 49.0043 63.7046 48.7331 63.6618 48.5904C63.3621 48.519 62.9909 48.6189 62.577 48.9044C62.163 49.1899 61.7776 49.5896 61.4635 50.0749C61.1352 50.5745 60.9211 51.1455 60.8355 51.8022C60.7355 52.4588 60.864 53.1011 61.2066 53.7578C61.3636 53.9862 61.5777 54.2716 61.8632 54.5857C62.1487 54.914 62.4342 55.2423 62.7197 55.5849C63.0052 55.9275 63.2907 56.2701 63.5762 56.5841C63.8617 56.8982 64.1043 57.1694 64.2899 57.3549C64.5183 57.5833 64.6753 57.7118 64.7467 57.7261C64.8181 57.7404 65.0179 57.6975 65.3177 57.5833C65.7031 57.3978 66.2883 57.1408 67.0734 56.8411C67.8585 56.5413 68.6865 56.2273 69.5429 55.9275C70.3994 55.6277 71.2273 55.3708 72.0124 55.1567C72.7975 54.9425 73.3971 54.8426 73.8253 54.8426C74.0965 54.8426 74.2821 54.9425 74.3963 55.1281C74.5105 55.2423 74.4962 55.3993 74.3392 55.5849C74.1822 55.7705 73.9823 55.9703 73.7396 56.1559C73.497 56.3415 73.2258 56.5127 72.9688 56.6698C72.6976 56.8268 72.5263 56.9124 72.4549 56.9553C71.7983 57.3407 70.9847 57.7689 69.9854 58.2542C68.9862 58.7253 68.1298 59.1964 67.4018 59.6531C67.3304 59.7245 67.1876 59.8102 66.9735 59.8815C66.7594 59.9529 66.6024 60.0386 66.4882 60.1099C66.945 61.1377 67.2733 62.037 67.4589 62.7793C67.6444 63.5215 67.7158 64.2353 67.6587 64.9347C67.6016 65.6199 67.4589 66.3194 67.2305 67.0331C67.0021 67.7468 66.688 68.5605 66.3169 69.474C65.7745 70.359 65.232 71.2012 64.6753 72.0006C64.1186 72.8 63.5048 73.528 62.8054 74.1846C62.1202 74.8413 61.3636 75.3551 60.5642 75.7263C59.7649 76.1117 58.8799 76.2973 57.9235 76.2973C57.381 76.2973 56.8671 76.2259 56.3675 76.0974C55.8679 75.9689 55.454 75.6834 55.1114 75.2695C54.2264 74.3131 53.741 73.2711 53.6268 72.1434C53.5126 71.0157 53.6126 69.9023 53.9123 68.7888C54.1407 68.1037 54.4262 67.4756 54.7688 66.8903C55.611 65.4343 56.5388 64.2067 57.5523 63.1932C58.5801 62.194 59.6364 61.2233 60.7498 60.3098ZM62.7054 62.8935C62.2772 63.3217 61.7062 63.9212 60.9782 64.7063C60.2502 65.4914 59.5793 66.3479 58.937 67.2615C58.3089 68.175 57.795 69.0886 57.3953 69.9879C56.9956 70.8872 56.8957 71.658 57.0813 72.3147C57.8521 71.9721 58.6372 71.4011 59.4366 70.616C60.2359 69.8309 60.9497 68.9744 61.5635 68.0323C62.1773 67.0902 62.6055 66.1623 62.8482 65.2488C63.0908 64.3209 63.048 63.5358 62.7054 62.8935Z" fill="#292F36" stroke="white" stroke-miterlimit="10"/>
<path d="M51.4428 83.5488C33.5854 83.5488 19.0539 69.0174 19.0539 51.1599C19.0539 33.3025 33.5854 18.771 51.4428 18.771C69.3003 18.771 83.8317 33.3025 83.8317 51.1599C83.8317 69.0174 69.3003 83.5488 51.4428 83.5488ZM51.4428 20.1984C34.3705 20.1984 20.4813 34.0876 20.4813 51.1599C20.4813 68.2323 34.3705 82.1214 51.4428 82.1214C68.5152 82.1214 82.4043 68.2323 82.4043 51.1599C82.4043 34.0876 68.5152 20.1984 51.4428 20.1984Z" fill="#292F36"/>
</svg>
