<svg width="132" height="44" viewBox="0 0 132 44" fill="none" xmlns="http://www.w3.org/2000/svg">
<path d="M11.6337 0.976562V1.16213L10.8629 1.3477V9.56983L11.6337 9.7554V9.94097H7.97946V9.7554L8.7503 9.56983V2.56104L5.7241 10.0694H5.33866L1.41317 2.56104V9.36999L2.44093 9.7554V9.94097H0V9.7554L1.02777 9.36999V1.3477L0.256931 1.16213V0.976562H1.85567C2.09834 0.976562 2.31246 1.00511 2.48376 1.06221C2.65505 1.11931 2.82637 1.19068 2.95484 1.2906C3.09758 1.39052 3.21178 1.50472 3.3117 1.63319C3.41162 1.76166 3.49728 1.91868 3.58292 2.0757L6.38072 7.42865L8.5219 2.0757C8.59327 1.89013 8.66466 1.73311 8.76459 1.60464C8.85023 1.47617 8.9644 1.36198 9.09287 1.26205C9.22134 1.16213 9.37839 1.09076 9.56396 1.04793C9.74953 1.00511 9.9779 0.976562 10.2634 0.976562H11.6337Z" fill="#292F36"/>
<path d="M16.2016 3.3606C16.7297 3.3606 17.2151 3.43197 17.629 3.58899C18.043 3.74601 18.3999 3.9744 18.6996 4.25989C18.9994 4.55966 19.2135 4.91652 19.3705 5.33048C19.5275 5.74444 19.5989 6.22978 19.5989 6.75793C19.5989 7.28609 19.5275 7.77143 19.3705 8.18539C19.2135 8.59935 18.9851 8.95621 18.6996 9.25598C18.3999 9.55574 18.043 9.76986 17.629 9.92688C17.2151 10.0839 16.7297 10.1553 16.2016 10.1553C15.6734 10.1553 15.1881 10.0839 14.7741 9.92688C14.3602 9.76986 14.0033 9.54147 13.7035 9.25598C13.4038 8.95621 13.1896 8.59935 13.0326 8.18539C12.8756 7.77143 12.8042 7.28609 12.8042 6.75793C12.8042 6.22978 12.8756 5.74444 13.0326 5.33048C13.1896 4.91652 13.418 4.55966 13.7035 4.25989C14.0033 3.96012 14.3602 3.74601 14.7741 3.58899C15.1881 3.43197 15.6591 3.3606 16.2016 3.3606ZM16.2016 9.91261C16.3443 9.91261 16.4871 9.86978 16.6441 9.76986C16.7868 9.66994 16.9153 9.51292 17.0295 9.27025C17.1437 9.02759 17.2436 8.71355 17.315 8.31386C17.3864 7.8999 17.4292 7.38601 17.4292 6.77221C17.4292 6.14413 17.3864 5.63025 17.315 5.23056C17.2436 4.83087 17.1437 4.50256 17.0295 4.27417C16.9153 4.04577 16.7868 3.87448 16.6441 3.77456C16.5013 3.67464 16.3586 3.63181 16.2016 3.63181C16.0588 3.63181 15.9161 3.67464 15.7591 3.77456C15.6163 3.87448 15.4878 4.0315 15.3736 4.27417C15.2594 4.51683 15.1595 4.83087 15.0882 5.23056C15.0168 5.64452 14.9739 6.1584 14.9739 6.77221C14.9739 7.40029 15.0168 7.91417 15.0882 8.31386C15.1595 8.71355 15.2594 9.04186 15.3736 9.27025C15.4878 9.49864 15.6163 9.66994 15.7591 9.76986C15.9018 9.85551 16.0446 9.91261 16.2016 9.91261Z" fill="#292F36"/>
<path d="M25.8369 0.976562C26.6077 0.976562 26.9931 1.36197 26.9931 2.1328V9.58411L27.764 9.76968V9.95525H26.6077C26.2937 9.95525 26.051 9.91242 25.8654 9.8125C25.6799 9.71258 25.5229 9.59838 25.4229 9.48419C25.2945 9.34144 25.1946 9.17015 25.1375 8.99885C25.0233 9.22725 24.8805 9.41281 24.7092 9.58411C24.5665 9.72685 24.3666 9.85532 24.1239 9.98379C23.8813 10.1123 23.5958 10.1694 23.2675 10.1694C22.8963 10.1694 22.5537 10.098 22.2397 9.95525C21.9114 9.8125 21.6402 9.59838 21.4118 9.31289C21.1834 9.0274 20.9836 8.67054 20.8551 8.25658C20.7124 7.82834 20.6552 7.343 20.6552 6.77202C20.6552 6.20104 20.7266 5.71571 20.8551 5.28747C20.9979 4.85924 21.1834 4.51665 21.4403 4.23116C21.683 3.94567 21.9828 3.73155 22.3254 3.5888C22.668 3.44606 23.0534 3.37468 23.4816 3.37468C23.71 3.37468 23.9098 3.40323 24.0954 3.44606C24.281 3.50315 24.438 3.56025 24.5665 3.63163C24.7235 3.703 24.8519 3.78865 24.9661 3.88857V1.39053L24.1953 1.20495V1.01939H25.8369V0.976562ZM24.9376 4.2597C24.8377 4.15978 24.752 4.07414 24.6379 4.00277C24.5379 3.93139 24.438 3.87429 24.3238 3.81719C24.2096 3.7601 24.0954 3.74582 23.9669 3.74582C23.8099 3.74582 23.6529 3.78865 23.5101 3.87429C23.3674 3.95994 23.2532 4.10269 23.139 4.3168C23.0391 4.53092 22.9535 4.84496 22.8964 5.23037C22.8393 5.63006 22.8107 6.12967 22.8107 6.75775C22.8107 7.37155 22.8393 7.85689 22.8964 8.2423C22.9535 8.62771 23.0248 8.92748 23.1248 9.1416C23.2104 9.35571 23.3103 9.51274 23.4388 9.58411C23.553 9.65548 23.6672 9.6983 23.7814 9.6983C23.9812 9.6983 24.1525 9.64121 24.2952 9.54128C24.438 9.44136 24.5522 9.31289 24.6521 9.18442C24.7663 9.0274 24.8662 8.8561 24.9519 8.67054V4.2597H24.9376Z" fill="#292F36"/>
<path d="M32.0606 10.1694C30.9614 10.1694 30.105 9.86967 29.5054 9.27014C28.8916 8.67061 28.5919 7.82841 28.5919 6.77209C28.5919 6.24394 28.6632 5.7586 28.8203 5.34464C28.9773 4.93068 29.1914 4.57382 29.4626 4.27405C29.7338 3.97429 30.0621 3.76017 30.4618 3.60315C30.8472 3.44613 31.2755 3.37476 31.7465 3.37476C32.2319 3.37476 32.6601 3.44613 33.0313 3.5746C33.4167 3.71734 33.7307 3.90291 34.0019 4.13131C34.2731 4.3597 34.473 4.63092 34.6157 4.94496C34.7585 5.259 34.8298 5.58731 34.8298 5.94417C34.8298 6.05837 34.8299 6.17257 34.8156 6.25821C34.8013 6.34386 34.787 6.42951 34.7728 6.50088C34.7442 6.58653 34.7299 6.6579 34.7014 6.715C34.3302 6.78637 33.9305 6.85774 33.5023 6.90057C33.1454 6.95766 32.7315 7.00049 32.2604 7.02904C31.7894 7.05759 31.304 7.08614 30.7901 7.08614C30.7901 7.61429 30.833 8.0568 30.9043 8.41367C30.9757 8.77053 31.0899 9.05602 31.2184 9.25586C31.3611 9.46998 31.5181 9.61273 31.7037 9.69838C31.8893 9.78402 32.1034 9.82685 32.3175 9.82685C32.5745 9.82685 32.8171 9.78402 33.0455 9.6841C33.2739 9.58418 33.4737 9.46998 33.6308 9.31296C33.8021 9.15594 33.9305 8.97037 34.0305 8.77053C34.1304 8.57069 34.1732 8.37084 34.1732 8.15673H34.4872C34.4872 8.41367 34.4302 8.65633 34.316 8.899C34.2018 9.14167 34.0305 9.35579 33.8163 9.54135C33.6022 9.72692 33.3453 9.86967 33.0455 9.98386C32.76 10.1123 32.4317 10.1694 32.0606 10.1694ZM30.7759 6.75782C31.0614 6.75782 31.3183 6.75782 31.5467 6.74355C31.7751 6.72927 31.9606 6.715 32.1177 6.70072C32.3032 6.68645 32.446 6.6579 32.5745 6.64362C32.5887 6.55798 32.6173 6.45806 32.6316 6.35813C32.6459 6.25821 32.6601 6.15829 32.6744 6.04409C32.6887 5.9299 32.6886 5.80143 32.6886 5.67296C32.6886 5.28754 32.6601 4.95923 32.603 4.70229C32.5459 4.44535 32.4745 4.23123 32.3746 4.05993C32.289 3.90291 32.189 3.77444 32.0606 3.71734C31.9321 3.66025 31.8322 3.61742 31.718 3.61742C31.6038 3.61742 31.4896 3.66025 31.3754 3.74589C31.2612 3.83154 31.1613 3.98856 31.0614 4.20268C30.9757 4.43107 30.8901 4.74511 30.833 5.15907C30.7759 5.57303 30.7759 6.10119 30.7759 6.75782Z" fill="#292F36"/>
<path d="M40.2256 3.80305C39.9687 3.80305 39.7403 3.86015 39.5405 3.96007C39.3406 4.05999 39.1693 4.18847 39.0266 4.31694C38.8695 4.47396 38.7411 4.64525 38.6126 4.83082V9.58424L39.3834 9.76981V9.95538H35.7863V9.76981L36.5571 9.58424V3.93152L35.7863 3.74596V3.56039H36.9425C37.2423 3.56039 37.4849 3.61748 37.6847 3.71741C37.8703 3.81733 38.0273 3.93152 38.1415 4.04572C38.27 4.18846 38.37 4.34548 38.4271 4.51678C38.5555 4.33121 38.7125 4.15992 38.8981 4.0029C39.0551 3.87443 39.255 3.76023 39.4976 3.64603C39.7403 3.53184 40.0115 3.48901 40.3398 3.48901C40.7966 3.48901 41.1392 3.60321 41.3676 3.80305C41.596 4.01717 41.6959 4.31694 41.6959 4.70235C41.6959 4.98784 41.6103 5.23051 41.439 5.4018C41.2677 5.5731 41.025 5.65874 40.7395 5.65874C40.6681 5.65874 40.611 5.65874 40.5397 5.65874C40.4683 5.65874 40.4255 5.64447 40.3827 5.64447C40.3256 5.63019 40.2684 5.63019 40.2256 5.60164V3.80305Z" fill="#292F36"/>
<path d="M47.2201 5.4731C47.2201 5.18761 47.1916 4.93067 47.1345 4.71655C47.0774 4.50243 47.0061 4.33113 46.9061 4.20266C46.8205 4.05992 46.7206 3.96 46.5921 3.9029C46.4779 3.8458 46.3637 3.80298 46.2495 3.80298C46.0496 3.80298 45.8784 3.86008 45.7356 3.96C45.5929 4.05992 45.4644 4.18839 45.3787 4.31686C45.2645 4.47388 45.1789 4.64518 45.0932 4.83074V9.58416L45.8641 9.76973V9.9553H42.2669V9.76973L43.0377 9.58416V3.93145L42.2669 3.74588V3.56031H43.4231C43.7229 3.56031 43.9656 3.61741 44.1654 3.71733C44.351 3.81725 44.508 3.93145 44.6222 4.04564C44.7507 4.18839 44.8506 4.34541 44.9077 4.5167C45.0219 4.30258 45.1646 4.10274 45.3359 3.93145C45.4787 3.7887 45.6785 3.66023 45.9069 3.53176C46.1353 3.40329 46.435 3.34619 46.7776 3.34619C47.1488 3.34619 47.4914 3.40329 47.7911 3.53176C48.1052 3.64596 48.3621 3.81725 48.5762 4.00282C48.7903 4.20266 48.9617 4.41678 49.0901 4.67372C49.2186 4.93067 49.2757 5.18761 49.2757 5.45882V9.56989L50.0465 9.75546V9.94103H48.3764C47.6056 9.94103 47.2201 9.55561 47.2201 8.78479V5.4731Z" fill="#292F36"/>
<path d="M1.35608 18.9766V18.4485H11.2769V18.9766L9.19278 19.5048V30.2821H16.6726V19.5048L14.5886 18.9766V18.4485H24.5094V18.9766L22.4253 19.5048V41.7731L24.5094 42.3012V42.8294H14.5886V42.287L16.6726 41.7588V31.1528H9.19278V41.7588L11.2769 42.287V42.8151H1.35608V42.287L3.44015 41.7588V19.4905L1.35608 18.9766Z" fill="#292F36"/>
<path d="M36.8426 24.8865C38.2843 24.8865 39.569 25.1006 40.7109 25.5146C41.8529 25.9285 42.8093 26.5423 43.6087 27.3417C44.408 28.1411 45.0218 29.1117 45.4358 30.2537C45.8498 31.3957 46.0639 32.6804 46.0639 34.1221C46.0639 35.5638 45.8498 36.8485 45.4358 37.9905C45.0218 39.1325 44.408 40.0889 43.6087 40.8882C42.8093 41.6876 41.8386 42.3014 40.7109 42.7154C39.569 43.1293 38.2843 43.3434 36.8426 43.3434C35.4008 43.3434 34.1161 43.1293 32.9742 42.7154C31.8322 42.3014 30.8758 41.6876 30.0764 40.8882C29.2771 40.0889 28.6633 39.1182 28.2493 37.9905C27.8353 36.8485 27.6212 35.5638 27.6212 34.1221C27.6212 32.6804 27.8353 31.3957 28.2493 30.2537C28.6633 29.1117 29.2771 28.1553 30.0764 27.3417C30.8758 26.528 31.8465 25.9285 32.9742 25.5146C34.1161 25.1006 35.4008 24.8865 36.8426 24.8865ZM36.8426 42.6297C37.2422 42.6297 37.6277 42.5013 38.0274 42.2443C38.4271 41.9874 38.7696 41.5449 39.0837 40.9025C39.3977 40.2602 39.6547 39.3894 39.8545 38.2903C40.0543 37.1911 40.1543 35.7922 40.1543 34.0936C40.1543 32.3949 40.0543 30.996 39.8545 29.8968C39.6547 28.7977 39.3977 27.927 39.0837 27.2846C38.7696 26.6422 38.4128 26.1997 38.0274 25.9428C37.642 25.6859 37.2422 25.5574 36.8426 25.5574C36.4429 25.5574 36.0575 25.6859 35.6578 25.9428C35.2581 26.1997 34.9155 26.6422 34.6014 27.2846C34.2874 27.927 34.0305 28.7977 33.8306 29.8968C33.6308 30.996 33.5309 32.3949 33.5309 34.0936C33.5309 35.7922 33.6308 37.1911 33.8306 38.2903C34.0305 39.3894 34.2874 40.2602 34.6014 40.9025C34.9155 41.5449 35.2724 41.9874 35.6578 42.2443C36.0575 42.5013 36.4429 42.6297 36.8426 42.6297Z" fill="#292F36"/>
<path d="M72.1435 30.6248C72.1435 29.7969 72.0721 29.0832 71.9294 28.5265C71.7866 27.9698 71.6153 27.4987 71.387 27.1418C71.1586 26.785 70.9159 26.528 70.6589 26.3567C70.3877 26.1997 70.1308 26.1141 69.8739 26.1141C69.4313 26.1141 69.0459 26.2568 68.7033 26.5423C68.3607 26.8278 68.0753 27.1561 67.8183 27.4987C67.5471 27.9127 67.2901 28.3837 67.0903 28.8833V41.759L69.1887 42.2871V42.8153H59.4534V42.2871L61.5375 41.759V30.6248C61.5375 29.7969 61.4661 29.0832 61.3234 28.5265C61.1806 27.9698 61.0093 27.4987 60.7809 27.1418C60.5525 26.785 60.3099 26.528 60.053 26.3567C59.7818 26.1997 59.5248 26.1141 59.2678 26.1141C58.8253 26.1141 58.44 26.2568 58.0974 26.5423C57.7548 26.8278 57.4692 27.1561 57.2123 27.4987C56.9268 27.9127 56.6842 28.3837 56.4843 28.8833V41.759L58.5684 42.2871V42.8153H48.8332V42.2871L50.9173 41.759V26.4567L48.8332 25.9285V25.4003H51.9593C52.7729 25.4003 53.4438 25.5431 53.9577 25.8143C54.4859 26.0855 54.8856 26.3996 55.1996 26.7136C55.5422 27.1133 55.7991 27.5415 55.9704 27.9983C56.2702 27.4131 56.6413 26.8992 57.0838 26.4281C57.4835 26.0284 57.9689 25.6716 58.5399 25.3432C59.1251 25.0149 59.8246 24.8579 60.6668 24.8579C62.0514 24.8579 63.2647 25.172 64.2639 25.7858C65.2774 26.3996 66.0483 27.1989 66.5764 28.1696C66.8762 27.5701 67.2473 27.0276 67.6899 26.528C68.0895 26.1141 68.5749 25.7287 69.1458 25.3861C69.7311 25.0435 70.4305 24.8579 71.2727 24.8579C72.2291 24.8579 73.0856 25.0149 73.885 25.3147C74.6701 25.6145 75.3553 26.0284 75.9262 26.5566C76.4972 27.0847 76.9397 27.6843 77.2538 28.3837C77.5678 29.0832 77.7248 29.8254 77.7248 30.6105V41.7447L79.8089 42.2728V42.801H75.2839C73.1998 42.801 72.1577 41.759 72.1577 39.6749V30.6248H72.1435Z" fill="#292F36"/>
<path d="M91.2856 43.329C88.3165 43.329 86.0041 42.5154 84.3625 40.8738C82.7209 39.2323 81.893 36.9911 81.893 34.1077C81.893 32.666 82.1071 31.3813 82.5211 30.2393C82.935 29.0973 83.5203 28.1409 84.2626 27.3273C85.0048 26.5279 85.9041 25.9141 86.9605 25.5001C88.0168 25.0862 89.173 24.8721 90.4149 24.8721C91.7139 24.8721 92.8844 25.0576 93.9122 25.4288C94.9399 25.7999 95.8249 26.2995 96.5387 26.9276C97.2524 27.5557 97.8091 28.298 98.1945 29.1402C98.5799 29.9824 98.7655 30.8816 98.7655 31.838C98.7655 32.1664 98.7512 32.4518 98.7084 32.6945C98.6656 32.9372 98.637 33.1513 98.5799 33.3369C98.5085 33.5653 98.4514 33.7651 98.4086 33.9221C97.3809 34.1362 96.3103 34.3075 95.1683 34.4503C94.1976 34.593 93.0699 34.7072 91.7995 34.8214C90.5291 34.9213 89.1873 34.9784 87.8027 34.9784C87.8027 36.4202 87.9026 37.6192 88.1167 38.5756C88.3308 39.532 88.6163 40.3028 88.9874 40.8738C89.3586 41.4448 89.8011 41.8445 90.3149 42.0872C90.8288 42.3298 91.3856 42.4583 91.9851 42.4583C92.6845 42.4583 93.3412 42.3298 93.955 42.0729C94.5688 41.8159 95.0969 41.4734 95.5537 41.0451C96.0105 40.6169 96.3674 40.1315 96.6386 39.5891C96.9098 39.0467 97.0383 38.49 97.0383 37.9333H97.909C97.909 38.6327 97.752 39.3036 97.438 39.946C97.1239 40.6026 96.6814 41.1736 96.0962 41.6732C95.5109 42.1728 94.8257 42.5725 94.0121 42.8723C93.1842 43.172 92.2706 43.329 91.2856 43.329ZM87.8027 34.1077C88.5878 34.1077 89.2872 34.0934 89.8867 34.0506C90.4863 34.0078 91.0001 33.9792 91.4141 33.9364C91.8994 33.8936 92.3134 33.8365 92.6703 33.7651C92.7131 33.5367 92.7702 33.2798 92.8416 32.9943C92.8844 32.7373 92.9272 32.4518 92.9557 32.1378C92.9843 31.8238 93.0128 31.4955 93.0128 31.1529C93.0128 30.1108 92.9272 29.2401 92.7702 28.5263C92.6131 27.8126 92.399 27.2416 92.1564 26.7991C91.9137 26.3566 91.6282 26.0426 91.3285 25.857C91.0144 25.6714 90.7004 25.5715 90.4006 25.5715C90.1008 25.5715 89.7868 25.6857 89.4727 25.8998C89.1587 26.1282 88.8875 26.5422 88.6448 27.156C88.4022 27.7698 88.2023 28.6405 88.0311 29.754C87.8883 30.8674 87.8027 32.3234 87.8027 34.1077Z" fill="#292F36"/>
<path d="M115.852 42.4584V28.3409L103.376 18.4629V42.4584H115.852Z" fill="#292F36"/>
<path d="M131.283 42.4584V28.3409L119.007 18.4629V42.4584H131.283Z" fill="#292F36"/>
</svg>
