<svg width="463" height="96" viewBox="0 0 463 96" fill="none" xmlns="http://www.w3.org/2000/svg">
<path d="M90 44.6092V40.9639L46.9216 9.77052H43.0784L33.3871 16.7872V11.2221H36.2903V2.51245H7.25806V11.2221H10.1613V33.606L0 40.9639V44.6092H7.25806V66.3834H0V86.706H7.25806V92.5125H82.7419V62.0286C86.7448 62.0286 90 58.7733 90 54.7705C90 50.7677 86.7448 47.5125 82.7419 47.5125V44.6092H90ZM10.1613 5.41568H33.3871V8.3189H10.1613V5.41568ZM30.4839 11.2221V18.8903L13.0645 31.5048V11.2221H30.4839ZM5.80645 77.9963V83.8028H2.90323V69.2866H69.6774V83.8028H66.7742V77.9963H63.871V83.8028H60.9677V77.9963H58.0645V83.8028H55.1613V77.9963H52.2581V83.8028H49.3548V77.9963H46.4516V83.8028H43.5484V77.9963H40.6452V83.8028H37.7419V77.9963H34.8387V83.8028H31.9355V77.9963H29.0323V83.8028H26.129V77.9963H23.2258V83.8028H20.3226V77.9963H17.4194V83.8028H14.5161V77.9963H11.6129V83.8028H8.70968V77.9963H5.80645ZM79.8387 89.6092H10.1613V86.706H72.5807V66.3834H10.1613V44.6092H79.8387V47.5125H27.1415L16.2544 54.7705L27.1415 62.0286H79.8387V89.6092ZM76.9355 50.4157V59.1254H74.0323V50.4157H76.9355ZM30.4839 53.3189V50.4157H71.129V53.3189H30.4839ZM71.129 56.2221V59.1254H30.4839V56.2221H71.129ZM27.5806 50.7096V58.8332L21.4875 54.7705L27.5806 50.7096ZM87.0968 54.7705C87.0968 57.1711 85.1425 59.1254 82.7419 59.1254H79.8387V50.4157H82.7419C85.1425 50.4157 87.0968 52.3699 87.0968 54.7705ZM3.92661 41.706L44.0183 12.6737H45.9817L86.0734 41.706H3.92661Z" fill="#CDA274"/>
<path d="M45 17.0281C38.5966 17.0281 33.3871 22.2376 33.3871 28.641C33.3871 35.0444 38.5966 40.2539 45 40.2539C51.4034 40.2539 56.6129 35.0444 56.6129 28.641C56.6129 22.2376 51.4034 17.0281 45 17.0281ZM45 37.3507C40.197 37.3507 36.2903 33.444 36.2903 28.641C36.2903 23.838 40.197 19.9313 45 19.9313C49.803 19.9313 53.7097 23.838 53.7097 28.641C53.7097 33.444 49.803 37.3507 45 37.3507Z" fill="#CDA274"/>
<path d="M357.569 91.8125C352.769 91.8125 348.249 90.4525 344.009 87.7325C339.849 85.0125 336.489 80.7325 333.929 74.8925C331.369 69.0524 330.089 61.4524 330.089 52.0924C330.089 42.6524 331.369 35.0124 333.929 29.1724C336.489 23.2524 339.849 18.9324 344.009 16.2125C348.249 13.4924 352.769 12.1324 357.569 12.1324C362.369 12.1324 366.849 13.4924 371.009 16.2125C375.249 18.9324 378.649 23.2524 381.209 29.1724C383.849 35.0124 385.169 42.6524 385.169 52.0924C385.169 61.4524 383.849 69.0524 381.209 74.8925C378.649 80.7325 375.249 85.0125 371.009 87.7325C366.849 90.4525 362.369 91.8125 357.569 91.8125ZM357.569 89.4125C359.569 89.4125 361.249 88.8925 362.609 87.8525C364.049 86.8125 365.209 84.9325 366.089 82.2125C366.969 79.4925 367.609 75.7325 368.009 70.9325C368.409 66.0524 368.609 59.7724 368.609 52.0924C368.609 44.4124 368.409 38.1324 368.009 33.2524C367.609 28.2924 366.969 24.4524 366.089 21.7325C365.209 19.0124 364.049 17.1324 362.609 16.0924C361.249 15.0524 359.569 14.5325 357.569 14.5325C355.569 14.5325 353.849 15.0524 352.409 16.0924C351.049 17.1324 349.929 19.0124 349.049 21.7325C348.169 24.3724 347.529 28.1724 347.129 33.1324C346.729 38.0124 346.529 44.3324 346.529 52.0924C346.529 59.7724 346.729 66.0524 347.129 70.9325C347.529 75.8125 348.169 79.6125 349.049 82.3325C349.929 84.9725 351.049 86.8125 352.409 87.8525C353.849 88.8925 355.569 89.4125 357.569 89.4125ZM418.164 91.8125C412.804 91.8125 408.404 91.2125 404.964 90.0125C401.604 88.8125 398.284 87.4125 395.004 85.8125L396.324 70.2125H397.524L402.804 79.9325C406.324 86.2525 411.204 89.4125 417.444 89.4125C421.124 89.4125 424.084 87.8925 426.324 84.8525C428.644 81.7325 429.804 76.5325 429.804 69.2525C429.804 62.9325 428.844 58.4125 426.924 55.6924C425.004 52.8924 421.724 51.4924 417.084 51.4924H409.884V49.0924H416.244C420.484 49.0924 423.524 47.8124 425.364 45.2524C427.284 42.6924 428.244 38.2524 428.244 31.9324C428.244 25.7724 427.324 21.4124 425.484 18.8524C423.644 16.2124 421.204 14.8924 418.164 14.8924C415.124 14.8924 412.564 15.7724 410.484 17.5324C408.484 19.2924 406.844 21.3724 405.564 23.7724L400.164 33.8524L398.964 33.7324L400.164 16.0924C402.724 14.9724 405.564 14.0524 408.684 13.3324C411.884 12.5324 415.444 12.1324 419.364 12.1324C427.764 12.1324 434.124 13.9724 438.444 17.6524C442.844 21.2524 445.044 25.7724 445.044 31.2125C445.044 35.1324 443.364 38.8924 440.004 42.4924C436.644 46.0124 431.364 48.4524 424.164 49.8125C432.324 50.5325 438.244 52.7325 441.924 56.4125C445.604 60.0925 447.444 64.5324 447.444 69.7324C447.444 73.8925 446.244 77.6525 443.844 81.0125C441.524 84.3725 438.164 87.0125 433.764 88.9325C429.444 90.8525 424.244 91.8125 418.164 91.8125Z" fill="white"/>
</svg>
