<svg width="453" height="103" viewBox="0 0 453 103" fill="none" xmlns="http://www.w3.org/2000/svg">
<path d="M92.5 94.8347H89.5322V97.8025H92.5V94.8347Z" fill="#CDA274"/>
<path d="M71.7258 20.6412V8.77023H47.9839V5.80249H45.0161V8.77023H21.2742V40.833L12.371 35.6932V35.4799H12.0037L11.6828 35.2944L11.5752 35.4799H0.5V56.2541C0.5 59.5279 3.16169 62.1896 6.43548 62.1896H21.2742V68.1251H34.3026L28.9606 94.8347H0.5V97.8025H86.5645V94.8347H64.0394L58.6974 68.1251H71.7258V44.3831H83.5968V41.4154H81.0445L83.7303 30.6759L78.2289 23.8C83.799 24.7756 88.0484 29.6353 88.0484 35.4799H91.0161C91.0161 30.6239 88.6605 26.317 85.0417 23.6089H92.5V20.6412H71.7258ZM9.40323 56.2541C9.40323 57.8901 8.07145 59.2218 6.43548 59.2218C4.79952 59.2218 3.46774 57.8901 3.46774 56.2541V38.4477H9.40323V56.2541ZM20.3709 44.7819L23.3386 49.9198L13.7491 55.4584L19.6827 45.1789L20.3709 44.7819ZM12.371 40.0391L12.7698 39.3472L17.9077 42.315L12.371 51.9082V40.0391ZM13.163 59.2218L23.4444 53.2864H24.2419V59.2218H13.163ZM45.0161 94.8347H31.9877L37.3297 68.1251H45.0161V94.8347ZM61.0123 94.8347H47.9839V68.1251H55.6703L61.0123 94.8347ZM68.6245 30.6759L71.3103 41.4154H68.7581V65.1573H24.2419V62.1896H27.2097V51.1125L27.3933 51.0049L27.2097 50.6877V50.3186H26.9964L24.2419 45.548V11.738H68.7581V20.6412H59.8548V23.6089H67.3131C63.6944 26.317 61.3387 30.6239 61.3387 35.4799H64.3065C64.3065 29.6353 68.5559 24.7756 74.126 23.7981L68.6245 30.6759ZM80.4955 31.3826L77.9877 41.4154H74.3671L71.8594 31.3807L74.6936 27.838V33.996H77.6613V27.8398L80.4955 31.3826Z" fill="#CDA274"/>
<path d="M33.1451 17.6734H30.1774V20.6411H33.1451V17.6734Z" fill="#CDA274"/>
<path d="M62.8225 56.2541H59.8548V59.2218H62.8225V56.2541Z" fill="#CDA274"/>
<path d="M59.8549 38.4476C59.8549 31.0839 53.8637 25.0927 46.5 25.0927C44.0999 25.0927 41.8499 25.7382 39.9005 26.8511L35.8291 21.2532L33.429 22.9986L37.5059 28.604C34.8331 31.0468 33.1452 34.5487 33.1452 38.4476C33.1452 45.8113 39.1363 51.8024 46.5 51.8024C48.9002 51.8024 51.1501 51.1569 53.0995 50.044L57.1709 55.6419L59.5711 53.8965L55.4941 48.2912C58.167 45.8484 59.8549 42.3465 59.8549 38.4476ZM46.5 48.8347C40.7741 48.8347 36.1129 44.1735 36.1129 38.4476C36.1129 35.5355 37.3223 32.9016 39.2606 31.0152L51.343 47.6309C49.8944 48.3951 48.2491 48.8347 46.5 48.8347ZM41.657 29.2661C43.1057 28.5001 44.7509 28.0605 46.5 28.0605C52.2259 28.0605 56.8871 32.7217 56.8871 38.4476C56.8871 41.3597 55.6778 43.9936 53.7395 45.8799L41.657 29.2661Z" fill="#CDA274"/>
<path d="M378.026 95.6025C373.226 95.6025 368.706 94.2425 364.466 91.5225C360.306 88.8025 356.946 84.5225 354.386 78.6825C351.826 72.8425 350.546 65.2425 350.546 55.8825C350.546 46.4425 351.826 38.8025 354.386 32.9625C356.946 27.0425 360.306 22.7225 364.466 20.0025C368.706 17.2825 373.226 15.9225 378.026 15.9225C382.826 15.9225 387.306 17.2825 391.466 20.0025C395.706 22.7225 399.106 27.0425 401.666 32.9625C404.306 38.8025 405.626 46.4425 405.626 55.8825C405.626 65.2425 404.306 72.8425 401.666 78.6825C399.106 84.5225 395.706 88.8025 391.466 91.5225C387.306 94.2425 382.826 95.6025 378.026 95.6025ZM378.026 93.2025C380.026 93.2025 381.706 92.6825 383.066 91.6425C384.506 90.6025 385.666 88.7225 386.546 86.0025C387.426 83.2825 388.066 79.5225 388.466 74.7225C388.866 69.8425 389.066 63.5625 389.066 55.8825C389.066 48.2025 388.866 41.9225 388.466 37.0425C388.066 32.0825 387.426 28.2425 386.546 25.5225C385.666 22.8025 384.506 20.9225 383.066 19.8825C381.706 18.8425 380.026 18.3225 378.026 18.3225C376.026 18.3225 374.306 18.8425 372.866 19.8825C371.506 20.9225 370.386 22.8025 369.506 25.5225C368.626 28.1625 367.986 31.9625 367.586 36.9225C367.186 41.8025 366.986 48.1225 366.986 55.8825C366.986 63.5625 367.186 69.8425 367.586 74.7225C367.986 79.6025 368.626 83.4025 369.506 86.1225C370.386 88.7625 371.506 90.6025 372.866 91.6425C374.306 92.6825 376.026 93.2025 378.026 93.2025ZM411.501 93.8025V92.6025L416.181 91.1625C419.221 90.1225 420.741 88.0825 420.741 85.0425V26.9625L411.021 28.2825V26.7225C415.741 25.7625 420.261 24.4025 424.581 22.6425C428.981 20.8825 433.101 18.8425 436.941 16.5225L438.501 17.6025L438.021 34.7625V85.0425C438.021 88.1625 439.541 90.1625 442.581 91.0425L447.501 92.6025V93.8025H411.501Z" fill="white"/>
</svg>
