<svg width="452" height="107" viewBox="0 0 452 107" fill="none" xmlns="http://www.w3.org/2000/svg">
<path d="M58.7664 86.3741H55.8998V79.2075V24.7408C55.8998 24.4541 55.7564 24.0241 55.6131 23.8808L51.4564 11.4108C51.3131 10.8375 50.7398 10.4075 50.1664 10.4075C49.5931 10.4075 49.0198 10.8375 48.8764 11.4108L44.7198 23.8808C44.5764 24.1675 44.4331 24.4541 44.4331 24.7408V79.2075V94.9741C44.4331 95.8341 45.0064 96.4075 45.8664 96.4075H54.4664C55.3264 96.4075 55.8998 95.8341 55.8998 94.9741V89.2408H60.1998C61.0598 89.2408 61.6331 88.6675 61.6331 87.8075V44.8075H58.7664V86.3741ZM47.2998 26.1741H53.0331V77.7741H47.2998V26.1741ZM50.1664 16.4275L52.4598 23.3075H47.8731L50.1664 16.4275ZM53.0331 93.5408H47.2998V80.6408H53.0331V93.5408Z" fill="#CDA274"/>
<path d="M84.5667 10.4075H68.8C67.94 10.4075 67.3667 10.9808 67.3667 11.8408V94.9741C67.3667 95.8341 67.94 96.4075 68.8 96.4075H84.5667C85.4267 96.4075 86 95.8341 86 94.9741V11.8408C86 10.9808 85.4267 10.4075 84.5667 10.4075ZM83.1334 93.5408H70.2334V83.5075H77.4V80.6408H70.2334V69.1741H77.4V66.3075H70.2334V54.8408H77.4V51.9741H70.2334V40.5075H77.4V37.6408H70.2334V26.1741H77.4V23.3075H70.2334V13.2741H83.1334V93.5408Z" fill="#CDA274"/>
<path d="M20.0667 24.7407C9.03 24.7407 0 33.7707 0 44.8074C0 52.5474 4.44333 59.5707 11.4667 62.8674V73.4741V80.6407C11.4667 81.5007 12.04 82.0741 12.9 82.0741H18.6333V86.3741H21.5V82.0741H27.2333C28.0933 82.0741 28.6667 81.5007 28.6667 80.6407V73.4741V62.8674C35.69 59.5707 40.1333 52.5474 40.1333 44.8074C40.1333 33.7707 31.1033 24.7407 20.0667 24.7407ZM25.8 79.2074H14.3333V74.9074H25.8V79.2074ZM26.66 60.7174C26.0867 60.8607 25.8 61.4341 25.8 62.0074V72.0407H14.3333V69.1741H21.5V66.3074H14.3333V62.0074C14.3333 61.4341 14.0467 60.8607 13.4733 60.7174C7.02333 57.9941 2.86667 51.6874 2.86667 44.8074C2.86667 35.3474 10.6067 27.6074 20.0667 27.6074C29.5267 27.6074 37.2667 35.3474 37.2667 44.8074C37.2667 51.6874 33.11 57.9941 26.66 60.7174Z" fill="#CDA274"/>
<path d="M23.3632 36.6375L20.0665 39.9341L16.7699 36.6375L14.7632 38.6441L18.6332 42.5141V57.7075H21.4999V42.5141L25.3699 38.6441L23.3632 36.6375Z" fill="#CDA274"/>
<path d="M353.069 97.2075C348.269 97.2075 343.749 95.8475 339.509 93.1275C335.349 90.4075 331.989 86.1275 329.429 80.2875C326.869 74.4475 325.589 66.8475 325.589 57.4875C325.589 48.0475 326.869 40.4075 329.429 34.5675C331.989 28.6475 335.349 24.3275 339.509 21.6075C343.749 18.8875 348.269 17.5275 353.069 17.5275C357.869 17.5275 362.349 18.8875 366.509 21.6075C370.749 24.3275 374.149 28.6475 376.709 34.5675C379.349 40.4075 380.669 48.0475 380.669 57.4875C380.669 66.8475 379.349 74.4475 376.709 80.2875C374.149 86.1275 370.749 90.4075 366.509 93.1275C362.349 95.8475 357.869 97.2075 353.069 97.2075ZM353.069 94.8075C355.069 94.8075 356.749 94.2875 358.109 93.2475C359.549 92.2075 360.709 90.3275 361.589 87.6075C362.469 84.8875 363.109 81.1275 363.509 76.3275C363.909 71.4475 364.109 65.1675 364.109 57.4875C364.109 49.8075 363.909 43.5275 363.509 38.6475C363.109 33.6875 362.469 29.8475 361.589 27.1275C360.709 24.4075 359.549 22.5275 358.109 21.4875C356.749 20.4475 355.069 19.9275 353.069 19.9275C351.069 19.9275 349.349 20.4475 347.909 21.4875C346.549 22.5275 345.429 24.4075 344.549 27.1275C343.669 29.7675 343.029 33.5675 342.629 38.5275C342.229 43.4075 342.029 49.7275 342.029 57.4875C342.029 65.1675 342.229 71.4475 342.629 76.3275C343.029 81.2075 343.669 85.0075 344.549 87.7275C345.429 90.3675 346.549 92.2075 347.909 93.2475C349.349 94.2875 351.069 94.8075 353.069 94.8075ZM391.464 39.4875L392.304 22.4475C394.704 21.0875 397.664 19.9275 401.184 18.9675C404.784 18.0075 408.824 17.5275 413.304 17.5275C419.704 17.5275 424.864 18.4475 428.784 20.2875C432.704 22.0475 435.584 24.4875 437.424 27.6075C439.264 30.7275 440.184 34.2475 440.184 38.1675C440.184 43.6875 437.504 49.0875 432.144 54.3675C426.784 59.5675 419.464 65.3275 410.184 71.6475C408.424 72.9275 406.344 74.4875 403.944 76.3275C401.544 78.1675 399.304 79.9675 397.224 81.7275H442.224V95.4075H389.424V85.3275C392.304 82.5275 395.104 79.7675 397.824 77.0475C400.624 74.2475 403.264 71.6075 405.744 69.1275C411.504 63.2075 415.784 57.9675 418.584 53.4075C421.464 48.7675 422.904 43.8075 422.904 38.5275C422.904 33.0075 421.904 28.5675 419.904 25.2075C417.904 21.7675 414.904 20.0475 410.904 20.0475C408.424 20.0475 406.104 20.6875 403.944 21.9675C401.864 23.1675 400.024 25.2875 398.424 28.3275L392.664 39.4875H391.464Z" fill="white"/>
</svg>
