<svg width="464" height="108" viewBox="0 0 464 108" fill="none" xmlns="http://www.w3.org/2000/svg">
<path d="M87 27.1799V6.61743H57.3407V38.9299H51.4088V56.5549H25.7053V74.1799H0V100.617H80.0801V38.9299H60.3066V27.1799H87ZM60.3066 9.55493H84.0341V24.2424H60.3066V9.55493ZM28.6713 59.4924H51.4107V64.3889H28.6713V59.4924ZM2.96593 77.1174H25.7053V82.0139H2.96593V77.1174ZM77.1142 97.6799H2.96593V84.9514H25.7053V91.3166H28.6713V67.3264H51.4107V77.6076H54.3766V49.7014H77.1142V97.6799ZM77.1142 41.8674V46.7639H54.3748V41.8674H77.1142Z" fill="#CDA274"/>
<path d="M79.5852 12.4924H72.6653V15.4299H79.5852V12.4924Z" fill="#CDA274"/>
<path d="M79.585 18.3674H64.7554V21.3049H79.585V18.3674Z" fill="#CDA274"/>
<path d="M32.1303 17.3889V20.3264H40.4145L3.39966 56.9845L5.49805 59.0628L42.511 22.4028V28.6487H45.4769V17.3889H32.1303Z" fill="#CDA274"/>
<path d="M9.39072 87.8889H5.43677V90.8264H9.39072V87.8889Z" fill="#CDA274"/>
<path d="M23.2325 87.8889H19.2786V90.8264H23.2325V87.8889Z" fill="#CDA274"/>
<path d="M35.0963 70.2639H31.1423V73.2014H35.0963V70.2639Z" fill="#CDA274"/>
<path d="M48.9378 70.2639H44.9839V73.2014H48.9378V70.2639Z" fill="#CDA274"/>
<path d="M60.8016 52.6389H56.8477V55.5764H60.8016V52.6389Z" fill="#CDA274"/>
<path d="M74.6412 52.6389H70.6873V55.5764H74.6412V52.6389Z" fill="#CDA274"/>
<path d="M352.718 97.9174C347.918 97.9174 343.398 96.5574 339.158 93.8374C334.998 91.1174 331.638 86.8374 329.078 80.9974C326.518 75.1574 325.238 67.5574 325.238 58.1974C325.238 48.7574 326.518 41.1174 329.078 35.2774C331.638 29.3574 334.998 25.0374 339.158 22.3174C343.398 19.5974 347.918 18.2374 352.718 18.2374C357.518 18.2374 361.998 19.5974 366.158 22.3174C370.398 25.0374 373.798 29.3574 376.358 35.2774C378.998 41.1174 380.318 48.7574 380.318 58.1974C380.318 67.5574 378.998 75.1574 376.358 80.9974C373.798 86.8374 370.398 91.1174 366.158 93.8374C361.998 96.5574 357.518 97.9174 352.718 97.9174ZM352.718 95.5174C354.718 95.5174 356.398 94.9974 357.758 93.9574C359.198 92.9174 360.358 91.0374 361.238 88.3174C362.118 85.5974 362.758 81.8374 363.158 77.0374C363.558 72.1574 363.758 65.8774 363.758 58.1974C363.758 50.5174 363.558 44.2374 363.158 39.3574C362.758 34.3974 362.118 30.5574 361.238 27.8374C360.358 25.1174 359.198 23.2374 357.758 22.1974C356.398 21.1574 354.718 20.6374 352.718 20.6374C350.718 20.6374 348.998 21.1574 347.558 22.1974C346.198 23.2374 345.078 25.1174 344.198 27.8374C343.318 30.4774 342.678 34.2774 342.278 39.2374C341.878 44.1174 341.678 50.4374 341.678 58.1974C341.678 65.8774 341.878 72.1574 342.278 77.0374C342.678 81.9174 343.318 85.7174 344.198 88.4374C345.078 91.0774 346.198 92.9174 347.558 93.9574C348.998 94.9974 350.718 95.5174 352.718 95.5174ZM417.272 96.1174V76.6774H385.712V69.8374L420.872 19.0774H432.632V67.7974H444.032V76.6774H432.632V96.1174H417.272ZM390.992 67.7974H417.272V29.9974L390.992 67.7974Z" fill="white"/>
</svg>
