<svg width="152" height="22" viewBox="0 0 152 22" fill="none" xmlns="http://www.w3.org/2000/svg">
<path d="M143.659 7.60791C141.284 7.60791 139.392 9.5376 139.392 11.8755C139.392 14.2505 141.284 16.1431 143.659 16.1431C145.997 16.1431 147.927 14.2505 147.927 11.8755C147.927 9.5376 145.997 7.60791 143.659 7.60791ZM143.659 14.6587C142.138 14.6587 140.876 13.4341 140.876 11.8755C140.876 10.354 142.101 9.12939 143.659 9.12939C145.181 9.12939 146.405 10.354 146.405 11.8755C146.405 13.4341 145.181 14.6587 143.659 14.6587ZM149.077 7.45947C149.077 6.90283 148.632 6.45752 148.075 6.45752C147.519 6.45752 147.073 6.90283 147.073 7.45947C147.073 8.01611 147.519 8.46143 148.075 8.46143C148.632 8.46143 149.077 8.01611 149.077 7.45947ZM151.898 8.46143C151.823 7.12549 151.527 5.93799 150.562 4.97314C149.597 4.0083 148.409 3.71143 147.073 3.63721C145.7 3.56299 141.581 3.56299 140.208 3.63721C138.872 3.71143 137.722 4.0083 136.72 4.97314C135.755 5.93799 135.458 7.12549 135.384 8.46143C135.31 9.83447 135.31 13.9536 135.384 15.3267C135.458 16.6626 135.755 17.813 136.72 18.8149C137.722 19.7798 138.872 20.0767 140.208 20.1509C141.581 20.2251 145.7 20.2251 147.073 20.1509C148.409 20.0767 149.597 19.7798 150.562 18.8149C151.527 17.813 151.823 16.6626 151.898 15.3267C151.972 13.9536 151.972 9.83447 151.898 8.46143ZM150.116 16.7739C149.857 17.5161 149.263 18.0728 148.558 18.3696C147.445 18.8149 144.847 18.7036 143.659 18.7036C142.435 18.7036 139.837 18.8149 138.761 18.3696C138.019 18.0728 137.462 17.5161 137.165 16.7739C136.72 15.6978 136.831 13.1001 136.831 11.8755C136.831 10.688 136.72 8.09033 137.165 6.97705C137.462 6.27197 138.019 5.71533 138.761 5.41846C139.837 4.97314 142.435 5.08447 143.659 5.08447C144.847 5.08447 147.445 4.97314 148.558 5.41846C149.263 5.67822 149.82 6.27197 150.116 6.97705C150.562 8.09033 150.45 10.688 150.45 11.8755C150.45 13.1001 150.562 15.6978 150.116 16.7739Z" fill="#292F36"/>
<path d="M92.9073 18.0005V7.48877H89.6377V18.0005H92.9073ZM91.2549 6.08252C92.3096 6.08252 93.1534 5.20361 93.1534 4.14893C93.1534 3.12939 92.3096 2.28564 91.2549 2.28564C90.2354 2.28564 89.3916 3.12939 89.3916 4.14893C89.3916 5.20361 90.2354 6.08252 91.2549 6.08252ZM105.106 18.0005H105.142V12.2349C105.142 9.42236 104.509 7.24268 101.204 7.24268C99.6221 7.24268 98.5674 8.12158 98.1104 8.93018H98.0752V7.48877H94.9463V18.0005H98.2159V12.7974C98.2159 11.4263 98.4619 10.1255 100.149 10.1255C101.837 10.1255 101.872 11.6724 101.872 12.9028V18.0005H105.106Z" fill="#292F36"/>
<path d="M59.6554 7.59424C60.3585 7.06689 60.9913 6.43408 61.4835 5.6958C60.8507 5.97705 60.1124 6.18799 59.3742 6.2583C60.1476 5.80127 60.7101 5.09814 60.9913 4.21924C60.2882 4.64111 59.4796 4.95752 58.671 5.1333C57.9679 4.39502 57.0187 3.97314 55.964 3.97314C53.9249 3.97314 52.2726 5.62549 52.2726 7.66455C52.2726 7.9458 52.3077 8.22705 52.3781 8.5083C49.3195 8.33252 46.5773 6.85596 44.7492 4.64111C44.4327 5.16846 44.257 5.80127 44.257 6.50439C44.257 7.77002 44.8898 8.89502 45.9093 9.56299C45.3117 9.52783 44.714 9.38721 44.2218 9.10596V9.14111C44.2218 10.9341 45.4874 12.4106 47.1749 12.7622C46.8937 12.8325 46.5421 12.9028 46.2257 12.9028C45.9796 12.9028 45.7687 12.8677 45.5226 12.8325C45.9796 14.3091 47.3507 15.3638 48.9679 15.3989C47.7023 16.3833 46.1202 16.981 44.3976 16.981C44.0812 16.981 43.7999 16.9458 43.5187 16.9106C45.1359 17.9653 47.0695 18.563 49.1788 18.563C55.964 18.563 59.6554 12.9731 59.6554 8.08643C59.6554 7.91064 59.6554 7.77002 59.6554 7.59424Z" fill="#292F36"/>
<path d="M9.98055 12.3755L10.4727 9.14111H7.34384V7.03174C7.34384 6.11768 7.76571 5.27393 9.17196 5.27393H10.6134V2.49658C10.6134 2.49658 9.31259 2.25049 8.08212 2.25049C5.51571 2.25049 3.82821 3.83252 3.82821 6.64502V9.14111H0.945398V12.3755H3.82821V20.2505H7.34384V12.3755H9.98055Z" fill="#292F36"/>
</svg>
